{
  "source": "C:\\Users\\Peter\\Desktop\\stuff\\MIUN\\quantitative_research\\video_compression\\videos\\UVG\\ShakeNDry_1920x1080_120fps_420_8bit_YUV.y4m",
  "output": "C:\\Users\\Peter\\Desktop\\stuff\\MIUN\\quantitative_research\\video_compression\\compressed_videos\\UVG\\hevc\\1\\ShakeNDry_1920x1080_120fps_420_8bit_YUV_hevc.mp4",
  "codec": "hevc",
  "ok": "[yuv4mpegpipe @ 00000183965066c0] Stream #0: not enough frames to estimate rate; consider increasing probesize\nInput #0, yuv4mpegpipe, from 'C:\\Users\\Peter\\Desktop\\stuff\\MIUN\\quantitative_research\\video_compression\\videos\\UVG\\ShakeNDry_1920x1080_120fps_420_8bit_YUV.y4m':\n  Duration: 00:00:02.50, start: 0.000000, bitrate: 2985989 kb/s\n  Stream #0:0: Video: rawvideo (I420 / 0x30323449), yuv420p(progressive), 1920x1080, 120 fps, 120 tbr, 120 tbn\n[out#0/mp4 @ 000001839650b640] Codec AVOption b:a (set bitrate (in bits/s)) has not been used for any stream. The most likely reason is either wrong type (e.g. a video option with no video streams) or that it is a private option of some decoder which was not actually used for any stream.\nStream mapping:\n  Stream #0:0 -> #0:0 (rawvideo (native) -> hevc (libx265))\nPress [q] to stop, [?] for help\n[libx265 @ 000001839650cac0] Unknown option: \"aq-mode.\nx265 [info]: HEVC encoder version 4.1+190-8f11c33ac\nx265 [info]: build info [Windows][GCC 15.1.0][64 bit] 10bit\nx265 [info]: using cpu capabilities: MMX2 SSE2Fast LZCNT SSSE3 SSE4.2 AVX FMA3 BMI2 AVX2\nx265 [info]: Main 10 profile, Level-5 (Main tier)\nx265 [info]: Thread pool created using 12 threads\nx265 [info]: Slices                              : 1\nx265 [info]: frame threads / pool features       : 3 / wpp(17 rows)\nx265 [info]: Coding QT: max CU size, min CU size : 64 / 8\nx265 [info]: Residual QT: max TU size, max depth : 32 / 1 inter / 1 intra\nx265 [info]: ME / range / subpel / merge         : star / 57 / 3 / 3\nx265 [info]: Keyframe min / max / scenecut / bias  : 25 / 250 / 40 / 5.00 \nx265 [info]: Lookahead / bframes / badapt        : 25 / 4 / 2\nx265 [info]: b-pyramid / weightp / weightb       : 1 / 1 / 0\nx265 [info]: References / ref-limit  cu / depth  : 4 / on / on\nx265 [info]: AQ: mode / str / qg-size / cu-tree  : 2 / 1.0 / 32 / 1\nx265 [info]: Rate Control / qCompress            : ABR-1000 kbps / 0.60\nx265 [info]: VBV/HRD buffer / max-rate / init    : 1000 / 1000 / 0.750\nx265 [info]: tools: rect limit-modes rd=4 psy-rd=2.00 rdoq=2 psy-rdoq=1.00\nx265 [info]: tools: rskip mode=1 signhide tmvp strong-intra-smoothing lslices=4\nx265 [info]: tools: deblock sao dhdr10-info\nOutput #0, mp4, to 'C:\\Users\\Peter\\Desktop\\stuff\\MIUN\\quantitative_research\\video_compression\\compressed_videos\\UVG\\hevc\\1\\ShakeNDry_1920x1080_120fps_420_8bit_YUV_hevc.mp4':\n  Metadata:\n    encoder         : Lavf62.3.100\n  Stream #0:0: Video: hevc (hev1 / 0x31766568), yuv420p10le(tv, progressive), 1920x1080, q=2-31, 1000 kb/s, 120 fps, 15360 tbn\n    Metadata:\n      encoder         : Lavc62.11.100 libx265\n    Side data:\n      cpb: bitrate max/min/avg: 1000000/0/1000000 buffer size: 1000000 vbv_delay: N/A\nframe=    0 fps=0.0 q=0.0 size=       0KiB time=N/A bitrate=N/A speed=N/A elapsed=0:00:00.52    \nframe=    0 fps=0.0 q=0.0 size=       0KiB time=N/A bitrate=N/A speed=N/A elapsed=0:00:01.03    \nframe=    0 fps=0.0 q=0.0 size=       0KiB time=N/A bitrate=N/A speed=N/A elapsed=0:00:01.55    \nframe=    0 fps=0.0 q=0.0 size=       0KiB time=N/A bitrate=N/A speed=N/A elapsed=0:00:02.07    \nframe=    0 fps=0.0 q=0.0 size=       0KiB time=N/A bitrate=N/A speed=N/A elapsed=0:00:02.59    \nframe=    0 fps=0.0 q=0.0 size=       0KiB time=N/A bitrate=N/A speed=N/A elapsed=0:00:03.12    \nframe=    0 fps=0.0 q=0.0 size=       0KiB time=N/A bitrate=N/A speed=N/A elapsed=0:00:03.63    \nframe=    0 fps=0.0 q=0.0 size=       0KiB time=N/A bitrate=N/A speed=N/A elapsed=0:00:04.13    \nframe=    0 fps=0.0 q=0.0 size=       0KiB time=N/A bitrate=N/A speed=N/A elapsed=0:00:04.65    \nframe=    0 fps=0.0 q=0.0 size=       0KiB time=N/A bitrate=N/A speed=N/A elapsed=0:00:05.17    \nframe=    0 fps=0.0 q=0.0 size=       0KiB time=N/A bitrate=N/A speed=N/A elapsed=0:00:05.69    \nframe=    0 fps=0.0 q=0.0 size=       0KiB time=N/A bitrate=N/A speed=N/A elapsed=0:00:06.20    \nframe=    0 fps=0.0 q=0.0 size=       0KiB time=N/A bitrate=N/A speed=N/A elapsed=0:00:06.72    \nframe=    0 fps=0.0 q=0.0 size=       0KiB time=N/A bitrate=N/A speed=N/A elapsed=0:00:07.24    \nframe=    0 fps=0.0 q=0.0 size=       0KiB time=N/A bitrate=N/A speed=N/A elapsed=0:00:07.74    \nframe=    0 fps=0.0 q=0.0 size=       0KiB time=N/A bitrate=N/A speed=N/A elapsed=0:00:08.27    \nframe=    0 fps=0.0 q=0.0 size=       0KiB time=N/A bitrate=N/A speed=N/A elapsed=0:00:08.79    \nframe=    0 fps=0.0 q=0.0 size=       0KiB time=N/A bitrate=N/A speed=N/A elapsed=0:00:09.30    \nframe=    0 fps=0.0 q=0.0 size=       0KiB time=N/A bitrate=N/A speed=N/A elapsed=0:00:09.81    \nframe=    0 fps=0.0 q=0.0 size=       0KiB time=N/A bitrate=N/A speed=N/A elapsed=0:00:10.33    \nframe=    1 fps=0.1 q=51.0 size=       0KiB time=-00:00:00.00 bitrate=N/A speed=N/A elapsed=0:00:10.84    \nframe=    1 fps=0.1 q=51.0 size=       0KiB time=-00:00:00.00 bitrate=N/A speed=N/A elapsed=0:00:11.35    \nframe=    1 fps=0.1 q=51.0 size=       0KiB time=-00:00:00.00 bitrate=N/A speed=N/A elapsed=0:00:11.87    \nframe=    2 fps=0.2 q=51.0 size=       0KiB time=00:00:00.00 bitrate=N/A speed=   0x elapsed=0:00:12.39    \nframe=    3 fps=0.2 q=51.0 size=       0KiB time=00:00:00.00 bitrate=  42.2kbits/s speed=0.000646x elapsed=0:00:12.90    \nframe=    3 fps=0.2 q=51.0 size=       0KiB time=00:00:00.00 bitrate=  42.2kbits/s speed=0.000621x elapsed=0:00:13.42    \nframe=    4 fps=0.3 q=51.0 size=       0KiB time=00:00:00.01 bitrate=  21.1kbits/s speed=0.0012x elapsed=0:00:13.93    \nframe=    4 fps=0.3 q=51.0 size=       0KiB time=00:00:00.01 bitrate=  21.1kbits/s speed=0.00115x elapsed=0:00:14.45    \nframe=    5 fps=0.3 q=51.0 size=       0KiB time=00:00:00.02 bitrate=  14.1kbits/s speed=0.00167x elapsed=0:00:14.97    \nframe=    6 fps=0.4 q=51.0 size=       0KiB time=00:00:00.03 bitrate=  10.6kbits/s speed=0.00215x elapsed=0:00:15.48    \nframe=    6 fps=0.4 q=51.0 size=       0KiB time=00:00:00.03 bitrate=  10.6kbits/s speed=0.00208x elapsed=0:00:16.00    \nframe=    7 fps=0.4 q=51.0 size=       0KiB time=00:00:00.04 bitrate=   8.4kbits/s speed=0.00252x elapsed=0:00:16.52    \nframe=    8 fps=0.5 q=51.0 size=       0KiB time=00:00:00.05 bitrate=   7.0kbits/s speed=0.00293x elapsed=0:00:17.03    \nframe=    8 fps=0.5 q=51.0 size=       0KiB time=00:00:00.05 bitrate=   7.0kbits/s speed=0.00285x elapsed=0:00:17.55    \nframe=    9 fps=0.5 q=51.0 size=       0KiB time=00:00:00.05 bitrate=   6.0kbits/s speed=0.00323x elapsed=0:00:18.06    \nframe=    9 fps=0.5 q=51.0 size=       0KiB time=00:00:00.05 bitrate=   6.0kbits/s speed=0.00314x elapsed=0:00:18.58    \nframe=   10 fps=0.5 q=51.0 size=       0KiB time=00:00:00.06 bitrate=   5.3kbits/s speed=0.00349x elapsed=0:00:19.09    \nframe=   11 fps=0.6 q=51.0 size=       0KiB time=00:00:00.06 bitrate=   5.3kbits/s speed=0.0034x elapsed=0:00:19.61    \nframe=   11 fps=0.5 q=51.0 size=       0KiB time=00:00:00.07 bitrate=   4.7kbits/s speed=0.00373x elapsed=0:00:20.12    \nframe=   11 fps=0.5 q=51.0 size=       0KiB time=00:00:00.07 bitrate=   4.7kbits/s speed=0.00363x elapsed=0:00:20.64    \nframe=   12 fps=0.6 q=51.0 size=       0KiB time=00:00:00.08 bitrate=   4.2kbits/s speed=0.00394x elapsed=0:00:21.15    \nframe=   13 fps=0.6 q=51.0 size=       0KiB time=00:00:00.09 bitrate=   3.8kbits/s speed=0.00423x elapsed=0:00:21.67    \nframe=   14 fps=0.6 q=51.0 size=       0KiB time=00:00:00.10 bitrate=   3.5kbits/s speed=0.00451x elapsed=0:00:22.19    \nframe=   14 fps=0.6 q=51.0 size=       0KiB time=00:00:00.10 bitrate=   3.5kbits/s speed=0.0044x elapsed=0:00:22.70    \nframe=   14 fps=0.6 q=51.0 size=       0KiB time=00:00:00.10 bitrate=   3.5kbits/s speed=0.00431x elapsed=0:00:23.22    \nframe=   14 fps=0.6 q=51.0 size=       0KiB time=00:00:00.10 bitrate=   3.5kbits/s speed=0.00421x elapsed=0:00:23.74    \nframe=   15 fps=0.6 q=51.0 size=       0KiB time=00:00:00.10 bitrate=   3.2kbits/s speed=0.00447x elapsed=0:00:24.25    \nframe=   16 fps=0.6 q=51.0 size=       0KiB time=00:00:00.11 bitrate=   3.0kbits/s speed=0.00471x elapsed=0:00:24.77    \nframe=   16 fps=0.6 q=51.0 size=       0KiB time=00:00:00.11 bitrate=   3.0kbits/s speed=0.00461x elapsed=0:00:25.28    \nframe=   16 fps=0.6 q=51.0 size=       0KiB time=00:00:00.11 bitrate=   3.0kbits/s speed=0.00452x elapsed=0:00:25.80    \nframe=   17 fps=0.6 q=50.9 size=       0KiB time=00:00:00.12 bitrate=   2.8kbits/s speed=0.00475x elapsed=0:00:26.32    \nframe=   17 fps=0.6 q=50.9 size=       0KiB time=00:00:00.12 bitrate=   2.8kbits/s speed=0.00466x elapsed=0:00:26.82    \nframe=   18 fps=0.7 q=51.0 size=       0KiB time=00:00:00.13 bitrate=   2.6kbits/s speed=0.00487x elapsed=0:00:27.35    \nframe=   18 fps=0.6 q=51.0 size=       0KiB time=00:00:00.13 bitrate=   2.6kbits/s speed=0.00479x elapsed=0:00:27.85    \nframe=   18 fps=0.6 q=51.0 size=       0KiB time=00:00:00.13 bitrate=   2.6kbits/s speed=0.0047x elapsed=0:00:28.37    \nframe=   19 fps=0.7 q=51.0 size=       0KiB time=00:00:00.14 bitrate=   2.5kbits/s speed=0.0049x elapsed=0:00:28.89    \nframe=   19 fps=0.6 q=51.0 size=       0KiB time=00:00:00.14 bitrate=   2.5kbits/s speed=0.00482x elapsed=0:00:29.40    \nframe=   20 fps=0.7 q=51.0 size=       0KiB time=00:00:00.15 bitrate=   2.3kbits/s speed=0.00501x elapsed=0:00:29.92    \nframe=   20 fps=0.7 q=51.0 size=       0KiB time=00:00:00.15 bitrate=   2.3kbits/s speed=0.00493x elapsed=0:00:30.44    \nframe=   21 fps=0.7 q=51.0 size=       0KiB time=00:00:00.15 bitrate=   2.2kbits/s speed=0.00511x elapsed=0:00:30.95    \nframe=   21 fps=0.7 q=51.0 size=       0KiB time=00:00:00.15 bitrate=   2.2kbits/s speed=0.00503x elapsed=0:00:31.47    \nframe=   22 fps=0.7 q=49.3 size=       0KiB time=00:00:00.16 bitrate=   2.1kbits/s speed=0.00521x elapsed=0:00:31.99    \nframe=   22 fps=0.7 q=49.3 size=       0KiB time=00:00:00.16 bitrate=   2.1kbits/s speed=0.00513x elapsed=0:00:32.50    \nframe=   23 fps=0.7 q=51.0 size=       0KiB time=00:00:00.17 bitrate=   2.0kbits/s speed=0.0053x elapsed=0:00:33.01    \nframe=   24 fps=0.7 q=51.0 size=       0KiB time=00:00:00.18 bitrate=   1.9kbits/s speed=0.00547x elapsed=0:00:33.54    \nframe=   24 fps=0.7 q=51.0 size=       0KiB time=00:00:00.18 bitrate=   1.9kbits/s speed=0.00538x elapsed=0:00:34.04    \nframe=   24 fps=0.7 q=51.0 size=       0KiB time=00:00:00.18 bitrate=   1.9kbits/s speed=0.0053x elapsed=0:00:34.56    \nframe=   25 fps=0.7 q=51.0 size=       0KiB time=00:00:00.19 bitrate=   1.8kbits/s speed=0.00546x elapsed=0:00:35.07    \nframe=   25 fps=0.7 q=51.0 size=       0KiB time=00:00:00.19 bitrate=   1.8kbits/s speed=0.00538x elapsed=0:00:35.59    \nframe=   26 fps=0.7 q=51.0 size=       0KiB time=00:00:00.20 bitrate=   1.8kbits/s speed=0.00554x elapsed=0:00:36.11    \nframe=   26 fps=0.7 q=51.0 size=       0KiB time=00:00:00.20 bitrate=   1.8kbits/s speed=0.00546x elapsed=0:00:36.63    \nframe=   26 fps=0.7 q=51.0 size=       0KiB time=00:00:00.20 bitrate=   1.8kbits/s speed=0.00538x elapsed=0:00:37.14    \nframe=   26 fps=0.7 q=51.0 size=       0KiB time=00:00:00.20 bitrate=   1.8kbits/s speed=0.00531x elapsed=0:00:37.65    \nframe=   27 fps=0.7 q=47.6 size=       0KiB time=00:00:00.20 bitrate=   1.7kbits/s speed=0.00546x elapsed=0:00:38.17    \nframe=   28 fps=0.7 q=51.0 size=       0KiB time=00:00:00.21 bitrate=   1.6kbits/s speed=0.0056x elapsed=0:00:38.69    \nframe=   28 fps=0.7 q=51.0 size=       0KiB time=00:00:00.21 bitrate=   1.6kbits/s speed=0.00552x elapsed=0:00:39.22    \nframe=   28 fps=0.7 q=51.0 size=       0KiB time=00:00:00.21 bitrate=   1.6kbits/s speed=0.00545x elapsed=0:00:39.73    \nframe=   28 fps=0.7 q=51.0 size=       0KiB time=00:00:00.21 bitrate=   1.6kbits/s speed=0.00538x elapsed=0:00:40.24    \nframe=   28 fps=0.7 q=51.0 size=       0KiB time=00:00:00.21 bitrate=   1.6kbits/s speed=0.00531x elapsed=0:00:40.77    \nframe=   29 fps=0.7 q=51.0 size=       0KiB time=00:00:00.22 bitrate=   1.6kbits/s speed=0.00545x elapsed=0:00:41.30    \nframe=   29 fps=0.7 q=51.0 size=       0KiB time=00:00:00.22 bitrate=   1.6kbits/s speed=0.00538x elapsed=0:00:41.81    \nframe=   29 fps=0.7 q=51.0 size=       0KiB time=00:00:00.22 bitrate=   1.6kbits/s speed=0.00532x elapsed=0:00:42.32    \nframe=   30 fps=0.7 q=51.0 size=       0KiB time=00:00:00.23 bitrate=   1.5kbits/s speed=0.00544x elapsed=0:00:42.85    \nframe=   30 fps=0.7 q=51.0 size=       0KiB time=00:00:00.23 bitrate=   1.5kbits/s speed=0.00538x elapsed=0:00:43.36    \nframe=   30 fps=0.7 q=51.0 size=       0KiB time=00:00:00.23 bitrate=   1.5kbits/s speed=0.00532x elapsed=0:00:43.87    \nframe=   30 fps=0.7 q=51.0 size=       0KiB time=00:00:00.23 bitrate=   1.5kbits/s speed=0.00526x elapsed=0:00:44.39    \nframe=   31 fps=0.7 q=51.0 size=       0KiB time=00:00:00.24 bitrate=   1.5kbits/s speed=0.00538x elapsed=0:00:44.90    \nframe=   31 fps=0.7 q=51.0 size=       0KiB time=00:00:00.24 bitrate=   1.5kbits/s speed=0.00532x elapsed=0:00:45.42    \nframe=   31 fps=0.7 q=51.0 size=       0KiB time=00:00:00.24 bitrate=   1.5kbits/s speed=0.00526x elapsed=0:00:45.94    \nframe=   31 fps=0.7 q=51.0 size=       0KiB time=00:00:00.24 bitrate=   1.5kbits/s speed=0.0052x elapsed=0:00:46.46    \nframe=   31 fps=0.7 q=51.0 size=       0KiB time=00:00:00.24 bitrate=   1.5kbits/s speed=0.00514x elapsed=0:00:46.98    \nframe=   31 fps=0.7 q=51.0 size=       0KiB time=00:00:00.24 bitrate=   1.5kbits/s speed=0.00509x elapsed=0:00:47.50    \nframe=   31 fps=0.6 q=51.0 size=       0KiB time=00:00:00.24 bitrate=   1.5kbits/s speed=0.00503x elapsed=0:00:48.02    \nframe=   31 fps=0.6 q=51.0 size=       0KiB time=00:00:00.24 bitrate=   1.5kbits/s speed=0.00498x elapsed=0:00:48.54    \nframe=   31 fps=0.6 q=51.0 size=       0KiB time=00:00:00.24 bitrate=   1.5kbits/s speed=0.00493x elapsed=0:00:49.06    \nframe=   32 fps=0.6 q=48.7 size=       0KiB time=00:00:00.25 bitrate=   1.4kbits/s speed=0.00504x elapsed=0:00:49.57    \nframe=   33 fps=0.7 q=51.0 size=       0KiB time=00:00:00.25 bitrate=   1.4kbits/s speed=0.00516x elapsed=0:00:50.10    \nframe=   33 fps=0.7 q=51.0 size=       0KiB time=00:00:00.25 bitrate=   1.4kbits/s speed=0.0051x elapsed=0:00:50.62    \nframe=   33 fps=0.6 q=51.0 size=       0KiB time=00:00:00.25 bitrate=   1.4kbits/s speed=0.00505x elapsed=0:00:51.14    \nframe=   34 fps=0.7 q=51.0 size=       0KiB time=00:00:00.26 bitrate=   1.3kbits/s speed=0.00516x elapsed=0:00:51.67    \nframe=   34 fps=0.7 q=51.0 size=       0KiB time=00:00:00.26 bitrate=   1.3kbits/s speed=0.00511x elapsed=0:00:52.19    \nframe=   34 fps=0.6 q=51.0 size=       0KiB time=00:00:00.26 bitrate=   1.3kbits/s speed=0.00506x elapsed=0:00:52.70    \nframe=   34 fps=0.6 q=51.0 size=       0KiB time=00:00:00.26 bitrate=   1.3kbits/s speed=0.00501x elapsed=0:00:53.22    \nframe=   34 fps=0.6 q=51.0 size=       0KiB time=00:00:00.26 bitrate=   1.3kbits/s speed=0.00496x elapsed=0:00:53.73    \nframe=   34 fps=0.6 q=51.0 size=       0KiB time=00:00:00.26 bitrate=   1.3kbits/s speed=0.00491x elapsed=0:00:54.25    \nframe=   34 fps=0.6 q=51.0 size=       0KiB time=00:00:00.26 bitrate=   1.3kbits/s speed=0.00487x elapsed=0:00:54.77    \nframe=   34 fps=0.6 q=51.0 size=       0KiB time=00:00:00.26 bitrate=   1.3kbits/s speed=0.00482x elapsed=0:00:55.28    \nframe=   35 fps=0.6 q=51.0 size=       0KiB time=00:00:00.27 bitrate=   1.3kbits/s speed=0.00493x elapsed=0:00:55.80    \nframe=   35 fps=0.6 q=51.0 size=       0KiB time=00:00:00.27 bitrate=   1.3kbits/s speed=0.00488x elapsed=0:00:56.31    \nframe=   36 fps=0.6 q=50.9 size=       0KiB time=00:00:00.28 bitrate=   1.2kbits/s speed=0.00498x elapsed=0:00:56.84    \nframe=   36 fps=0.6 q=50.9 size=       0KiB time=00:00:00.28 bitrate=   1.2kbits/s speed=0.00494x elapsed=0:00:57.36    \nframe=   36 fps=0.6 q=50.9 size=       0KiB time=00:00:00.28 bitrate=   1.2kbits/s speed=0.0049x elapsed=0:00:57.87    \nframe=   36 fps=0.6 q=50.9 size=       0KiB time=00:00:00.28 bitrate=   1.2kbits/s speed=0.00485x elapsed=0:00:58.39    \nframe=   37 fps=0.6 q=46.6 size=       0KiB time=00:00:00.29 bitrate=   1.2kbits/s speed=0.00495x elapsed=0:00:58.90    \nframe=   37 fps=0.6 q=46.6 size=       0KiB time=00:00:00.29 bitrate=   1.2kbits/s speed=0.00491x elapsed=0:00:59.42    \nframe=   37 fps=0.6 q=46.6 size=       0KiB time=00:00:00.29 bitrate=   1.2kbits/s speed=0.00487x elapsed=0:00:59.94    \nframe=   38 fps=0.6 q=50.9 size=       0KiB time=00:00:00.30 bitrate=   1.2kbits/s speed=0.00496x elapsed=0:01:00.45    \nframe=   38 fps=0.6 q=50.9 size=       0KiB time=00:00:00.30 bitrate=   1.2kbits/s speed=0.00492x elapsed=0:01:00.97    \nframe=   38 fps=0.6 q=50.9 size=       0KiB time=00:00:00.30 bitrate=   1.2kbits/s speed=0.00488x elapsed=0:01:01.48    \nframe=   39 fps=0.6 q=50.9 size=       0KiB time=00:00:00.30 bitrate=   1.1kbits/s speed=0.00497x elapsed=0:01:02.00    \nframe=   39 fps=0.6 q=50.9 size=       0KiB time=00:00:00.30 bitrate=   1.1kbits/s speed=0.00493x elapsed=0:01:02.52    \nframe=   39 fps=0.6 q=50.9 size=       0KiB time=00:00:00.30 bitrate=   1.1kbits/s speed=0.00489x elapsed=0:01:03.03    \nframe=   40 fps=0.6 q=50.9 size=       0KiB time=00:00:00.31 bitrate=   1.1kbits/s speed=0.00498x elapsed=0:01:03.60    \nframe=   41 fps=0.6 q=50.8 size=       0KiB time=00:00:00.32 bitrate=   1.1kbits/s speed=0.00507x elapsed=0:01:04.15    \nframe=   44 fps=0.7 q=50.8 size=       0KiB time=00:00:00.35 bitrate=   1.0kbits/s speed=0.00541x elapsed=0:01:04.66    \nframe=   44 fps=0.7 q=50.8 size=       0KiB time=00:00:00.35 bitrate=   1.0kbits/s speed=0.00537x elapsed=0:01:05.20    \nframe=   44 fps=0.7 q=50.8 size=       0KiB time=00:00:00.35 bitrate=   1.0kbits/s speed=0.00532x elapsed=0:01:05.78    \nframe=   45 fps=0.7 q=50.6 size=       0KiB time=00:00:00.35 bitrate=   1.0kbits/s speed=0.0054x elapsed=0:01:06.31    \nframe=   46 fps=0.7 q=50.7 size=       0KiB time=00:00:00.36 bitrate=   1.0kbits/s speed=0.00548x elapsed=0:01:06.88    \nframe=   46 fps=0.7 q=50.7 size=       0KiB time=00:00:00.36 bitrate=   1.0kbits/s speed=0.00544x elapsed=0:01:07.44    \nframe=   47 fps=0.7 q=45.6 size=       0KiB time=00:00:00.36 bitrate=   1.0kbits/s speed=0.00539x elapsed=0:01:07.99    \nframe=   48 fps=0.7 q=50.3 size=       0KiB time=00:00:00.38 bitrate=   0.9kbits/s speed=0.00559x elapsed=0:01:08.61    \nframe=   48 fps=0.7 q=50.3 size=       0KiB time=00:00:00.38 bitrate=   0.9kbits/s speed=0.00554x elapsed=0:01:09.18    \nframe=   49 fps=0.7 q=50.7 size=       0KiB time=00:00:00.39 bitrate=   0.9kbits/s speed=0.00562x elapsed=0:01:09.70    \nframe=   50 fps=0.7 q=50.7 size=       0KiB time=00:00:00.40 bitrate=   0.9kbits/s speed=0.0057x elapsed=0:01:10.23    \nframe=   50 fps=0.7 q=50.7 size=       0KiB time=00:00:00.40 bitrate=   0.9kbits/s speed=0.00565x elapsed=0:01:10.80    \nframe=   51 fps=0.7 q=50.8 size=       0KiB time=00:00:00.40 bitrate=   0.9kbits/s speed=0.00573x elapsed=0:01:11.31    \nframe=   52 fps=0.7 q=46.6 size=       0KiB time=00:00:00.41 bitrate=   0.8kbits/s speed=0.0058x elapsed=0:01:11.83    \nframe=   53 fps=0.7 q=49.7 size=       0KiB time=00:00:00.42 bitrate=   0.8kbits/s speed=0.00587x elapsed=0:01:12.35    \nframe=   53 fps=0.7 q=49.7 size=       0KiB time=00:00:00.42 bitrate=   0.8kbits/s speed=0.00583x elapsed=0:01:12.88    \nframe=   54 fps=0.7 q=50.6 size=       0KiB time=00:00:00.43 bitrate=   0.8kbits/s speed=0.0059x elapsed=0:01:13.43    \nframe=   55 fps=0.7 q=49.7 size=       0KiB time=00:00:00.44 bitrate=   0.8kbits/s speed=0.00597x elapsed=0:01:13.95    \nframe=   55 fps=0.7 q=49.7 size=       0KiB time=00:00:00.44 bitrate=   0.8kbits/s speed=0.00593x elapsed=0:01:14.47    \nframe=   55 fps=0.7 q=49.7 size=       0KiB time=00:00:00.44 bitrate=   0.8kbits/s speed=0.00589x elapsed=0:01:14.99    \nframe=   56 fps=0.7 q=49.7 size=       0KiB time=00:00:00.45 bitrate=   0.8kbits/s speed=0.00596x elapsed=0:01:15.50    \nframe=   56 fps=0.7 q=49.7 size=       0KiB time=00:00:00.45 bitrate=   0.8kbits/s speed=0.00592x elapsed=0:01:16.02    \nframe=   57 fps=0.7 q=44.6 size=       0KiB time=00:00:00.45 bitrate=   0.8kbits/s speed=0.00599x elapsed=0:01:16.53    \nframe=   57 fps=0.7 q=44.6 size=       0KiB time=00:00:00.45 bitrate=   0.8kbits/s speed=0.00595x elapsed=0:01:17.05    \nframe=   57 fps=0.7 q=44.6 size=       0KiB time=00:00:00.45 bitrate=   0.8kbits/s speed=0.00591x elapsed=0:01:17.58    \nframe=   58 fps=0.7 q=49.5 size=       0KiB time=00:00:00.46 bitrate=   0.8kbits/s speed=0.00598x elapsed=0:01:18.09    \nframe=   58 fps=0.7 q=49.5 size=       0KiB time=00:00:00.46 bitrate=   0.8kbits/s speed=0.00594x elapsed=0:01:18.60    \nframe=   59 fps=0.7 q=49.7 size=       0KiB time=00:00:00.47 bitrate=   0.7kbits/s speed=0.006x elapsed=0:01:19.13    \nframe=   59 fps=0.7 q=49.7 size=       0KiB time=00:00:00.47 bitrate=   0.7kbits/s speed=0.00596x elapsed=0:01:19.65    \nframe=   59 fps=0.7 q=49.7 size=       0KiB time=00:00:00.47 bitrate=   0.7kbits/s speed=0.00593x elapsed=0:01:20.15    \nframe=   60 fps=0.7 q=49.4 size=       0KiB time=00:00:00.48 bitrate=   0.7kbits/s speed=0.00599x elapsed=0:01:20.66    \nframe=   60 fps=0.7 q=49.4 size=       0KiB time=00:00:00.48 bitrate=   0.7kbits/s speed=0.00595x elapsed=0:01:21.19    \nframe=   60 fps=0.7 q=49.4 size=       0KiB time=00:00:00.48 bitrate=   0.7kbits/s speed=0.00592x elapsed=0:01:21.70    \nframe=   61 fps=0.7 q=49.5 size=       0KiB time=00:00:00.49 bitrate=   0.7kbits/s speed=0.00598x elapsed=0:01:22.21    \nframe=   61 fps=0.7 q=49.5 size=       0KiB time=00:00:00.49 bitrate=   0.7kbits/s speed=0.00594x elapsed=0:01:22.73    \nframe=   61 fps=0.7 q=49.5 size=       0KiB time=00:00:00.49 bitrate=   0.7kbits/s speed=0.00591x elapsed=0:01:23.24    \nframe=   62 fps=0.7 q=44.4 size=       0KiB time=00:00:00.50 bitrate=   0.7kbits/s speed=0.00597x elapsed=0:01:23.77    \nframe=   63 fps=0.7 q=48.6 size=       0KiB time=00:00:00.50 bitrate=   0.7kbits/s speed=0.00603x elapsed=0:01:24.27    \nframe=   64 fps=0.8 q=48.7 size=       0KiB time=00:00:00.51 bitrate=   0.7kbits/s speed=0.00609x elapsed=0:01:24.79    \nframe=   64 fps=0.8 q=48.7 size=       0KiB time=00:00:00.51 bitrate=   0.7kbits/s speed=0.00606x elapsed=0:01:25.31    \nframe=   65 fps=0.8 q=49.5 size=       0KiB time=00:00:00.52 bitrate=   0.7kbits/s speed=0.00612x elapsed=0:01:25.82    \nframe=   65 fps=0.8 q=49.5 size=       0KiB time=00:00:00.52 bitrate=   0.7kbits/s speed=0.00608x elapsed=0:01:26.34    \nframe=   65 fps=0.7 q=49.5 size=       0KiB time=00:00:00.52 bitrate=   0.7kbits/s speed=0.00604x elapsed=0:01:26.85    \nframe=   66 fps=0.8 q=49.7 size=       0KiB time=00:00:00.53 bitrate=   0.7kbits/s speed=0.0061x elapsed=0:01:27.37    \nframe=   67 fps=0.8 q=44.0 size=       0KiB time=00:00:00.54 bitrate=   0.6kbits/s speed=0.00616x elapsed=0:01:27.89    \nframe=   68 fps=0.8 q=48.5 size=       0KiB time=00:00:00.55 bitrate=   0.6kbits/s speed=0.00622x elapsed=0:01:28.40    \nframe=   68 fps=0.8 q=48.5 size=       0KiB time=00:00:00.55 bitrate=   0.6kbits/s speed=0.00619x elapsed=0:01:28.92    \nframe=   69 fps=0.8 q=48.7 size=       0KiB time=00:00:00.55 bitrate=   0.6kbits/s speed=0.00624x elapsed=0:01:29.43    \nframe=   70 fps=0.8 q=48.7 size=       0KiB time=00:00:00.56 bitrate=   0.6kbits/s speed=0.0063x elapsed=0:01:29.95    \nframe=   70 fps=0.8 q=48.7 size=       0KiB time=00:00:00.56 bitrate=   0.6kbits/s speed=0.00626x elapsed=0:01:30.46    \nframe=   70 fps=0.8 q=48.7 size=       0KiB time=00:00:00.56 bitrate=   0.6kbits/s speed=0.00623x elapsed=0:01:30.98    \nframe=   71 fps=0.8 q=49.5 size=       0KiB time=00:00:00.57 bitrate=   0.6kbits/s speed=0.00628x elapsed=0:01:31.49    \nframe=   71 fps=0.8 q=49.5 size=       0KiB time=00:00:00.57 bitrate=   0.6kbits/s speed=0.00625x elapsed=0:01:32.02    \nframe=   72 fps=0.8 q=44.3 size=       0KiB time=00:00:00.58 bitrate=   0.6kbits/s speed=0.0063x elapsed=0:01:32.53    \nframe=   73 fps=0.8 q=47.6 size=       0KiB time=00:00:00.59 bitrate=   0.6kbits/s speed=0.00636x elapsed=0:01:33.04    \nframe=   73 fps=0.8 q=47.6 size=       0KiB time=00:00:00.59 bitrate=   0.6kbits/s speed=0.00632x elapsed=0:01:33.56    \nframe=   74 fps=0.8 q=48.6 size=       0KiB time=00:00:00.60 bitrate=   0.6kbits/s speed=0.00638x elapsed=0:01:34.07    \nframe=   74 fps=0.8 q=48.6 size=       0KiB time=00:00:00.60 bitrate=   0.6kbits/s speed=0.00634x elapsed=0:01:34.60    \nframe=   74 fps=0.8 q=48.6 size=       0KiB time=00:00:00.60 bitrate=   0.6kbits/s speed=0.00631x elapsed=0:01:35.11    \nframe=   75 fps=0.8 q=48.6 size=       0KiB time=00:00:00.60 bitrate=   0.6kbits/s speed=0.00636x elapsed=0:01:35.62    \nframe=   76 fps=0.8 q=48.7 size=       0KiB time=00:00:00.61 bitrate=   0.6kbits/s speed=0.00641x elapsed=0:01:36.14    \nframe=   76 fps=0.8 q=48.7 size=       0KiB time=00:00:00.61 bitrate=   0.6kbits/s speed=0.00638x elapsed=0:01:36.65    \nframe=   76 fps=0.8 q=48.7 size=       0KiB time=00:00:00.61 bitrate=   0.6kbits/s speed=0.00635x elapsed=0:01:37.17    \nframe=   76 fps=0.8 q=48.7 size=       0KiB time=00:00:00.61 bitrate=   0.6kbits/s speed=0.00631x elapsed=0:01:37.68    \nframe=   77 fps=0.8 q=43.6 size=       0KiB time=00:00:00.62 bitrate=   0.6kbits/s speed=0.00636x elapsed=0:01:38.20    \nframe=   78 fps=0.8 q=47.3 size=       0KiB time=00:00:00.63 bitrate=   0.6kbits/s speed=0.00642x elapsed=0:01:38.72    \nframe=   78 fps=0.8 q=47.3 size=       0KiB time=00:00:00.63 bitrate=   0.6kbits/s speed=0.00638x elapsed=0:01:39.23    \nframe=   79 fps=0.8 q=48.5 size=       0KiB time=00:00:00.64 bitrate=   0.5kbits/s speed=0.00643x elapsed=0:01:39.75    \nframe=   79 fps=0.8 q=48.5 size=       0KiB time=00:00:00.64 bitrate=   0.5kbits/s speed=0.0064x elapsed=0:01:40.27    \nframe=   79 fps=0.8 q=48.5 size=       0KiB time=00:00:00.64 bitrate=   0.5kbits/s speed=0.00637x elapsed=0:01:40.77    \nframe=   79 fps=0.8 q=48.5 size=       0KiB time=00:00:00.64 bitrate=   0.5kbits/s speed=0.00633x elapsed=0:01:41.29    \nframe=   80 fps=0.8 q=48.4 size=       0KiB time=00:00:00.65 bitrate=   0.5kbits/s speed=0.00638x elapsed=0:01:41.82    \nframe=   80 fps=0.8 q=48.4 size=       0KiB time=00:00:00.65 bitrate=   0.5kbits/s speed=0.00635x elapsed=0:01:42.32    \nframe=   80 fps=0.8 q=48.4 size=       0KiB time=00:00:00.65 bitrate=   0.5kbits/s speed=0.00632x elapsed=0:01:42.85    \nframe=   80 fps=0.8 q=48.4 size=       0KiB time=00:00:00.65 bitrate=   0.5kbits/s speed=0.00629x elapsed=0:01:43.36    \nframe=   80 fps=0.8 q=48.4 size=       0KiB time=00:00:00.65 bitrate=   0.5kbits/s speed=0.00626x elapsed=0:01:43.87    \nframe=   81 fps=0.8 q=48.7 size=       0KiB time=00:00:00.65 bitrate=   0.5kbits/s speed=0.00631x elapsed=0:01:44.38    \nframe=   81 fps=0.8 q=48.7 size=       0KiB time=00:00:00.65 bitrate=   0.5kbits/s speed=0.00628x elapsed=0:01:44.91    \nframe=   82 fps=0.8 q=44.3 size=       0KiB time=00:00:00.66 bitrate=   0.5kbits/s speed=0.00632x elapsed=0:01:45.42    \nframe=   82 fps=0.8 q=44.3 size=       0KiB time=00:00:00.66 bitrate=   0.5kbits/s speed=0.00629x elapsed=0:01:45.94    \nframe=   83 fps=0.8 q=47.3 size=       0KiB time=00:00:00.67 bitrate=   0.5kbits/s speed=0.00634x elapsed=0:01:46.46    \nframe=   84 fps=0.8 q=48.5 size=       0KiB time=00:00:00.68 bitrate=   0.5kbits/s speed=0.00639x elapsed=0:01:46.98    \nframe=   84 fps=0.8 q=48.5 size=       0KiB time=00:00:00.68 bitrate=   0.5kbits/s speed=0.00636x elapsed=0:01:47.49    \nframe=   85 fps=0.8 q=48.4 size=       0KiB time=00:00:00.69 bitrate=   0.5kbits/s speed=0.0064x elapsed=0:01:48.00    \nframe=   86 fps=0.8 q=48.6 size=       0KiB time=00:00:00.70 bitrate=   0.5kbits/s speed=0.00645x elapsed=0:01:48.51    \nframe=   86 fps=0.8 q=48.6 size=       0KiB time=00:00:00.70 bitrate=   0.5kbits/s speed=0.00642x elapsed=0:01:49.03    \nframe=   87 fps=0.8 q=43.9 size=       0KiB time=00:00:00.70 bitrate=   0.5kbits/s speed=0.00647x elapsed=0:01:49.54    \nframe=   87 fps=0.8 q=43.9 size=       0KiB time=00:00:00.70 bitrate=   0.5kbits/s speed=0.00644x elapsed=0:01:50.06    \nframe=   88 fps=0.8 q=46.6 size=       0KiB time=00:00:00.71 bitrate=   0.5kbits/s speed=0.00648x elapsed=0:01:50.58    \nframe=   88 fps=0.8 q=46.6 size=       0KiB time=00:00:00.71 bitrate=   0.5kbits/s speed=0.00645x elapsed=0:01:51.10    \nframe=   88 fps=0.8 q=46.6 size=       0KiB time=00:00:00.71 bitrate=   0.5kbits/s speed=0.00642x elapsed=0:01:51.61    \nframe=   89 fps=0.8 q=48.6 size=       0KiB time=00:00:00.72 bitrate=   0.5kbits/s speed=0.00647x elapsed=0:01:52.12    \nframe=   89 fps=0.8 q=48.6 size=       0KiB time=00:00:00.72 bitrate=   0.5kbits/s speed=0.00644x elapsed=0:01:52.64    \nframe=   89 fps=0.8 q=48.6 size=       0KiB time=00:00:00.72 bitrate=   0.5kbits/s speed=0.00641x elapsed=0:01:53.15    \nframe=   90 fps=0.8 q=47.6 size=       0KiB time=00:00:00.73 bitrate=   0.5kbits/s speed=0.00645x elapsed=0:01:53.67    \nframe=   90 fps=0.8 q=47.6 size=       0KiB time=00:00:00.73 bitrate=   0.5kbits/s speed=0.00642x elapsed=0:01:54.18    \nframe=   91 fps=0.8 q=47.6 size=       0KiB time=00:00:00.74 bitrate=   0.5kbits/s speed=0.00647x elapsed=0:01:54.70    \nframe=   91 fps=0.8 q=47.6 size=       0KiB time=00:00:00.74 bitrate=   0.5kbits/s speed=0.00644x elapsed=0:01:55.22    \nframe=   91 fps=0.8 q=47.6 size=       0KiB time=00:00:00.74 bitrate=   0.5kbits/s speed=0.00641x elapsed=0:01:55.74    \nframe=   92 fps=0.8 q=43.9 size=       0KiB time=00:00:00.75 bitrate=   0.5kbits/s speed=0.00645x elapsed=0:01:56.24    \nframe=   93 fps=0.8 q=46.4 size=       0KiB time=00:00:00.75 bitrate=   0.5kbits/s speed=0.00649x elapsed=0:01:56.76    \nframe=   93 fps=0.8 q=46.4 size=       0KiB time=00:00:00.75 bitrate=   0.5kbits/s speed=0.00647x elapsed=0:01:57.27    \nframe=   93 fps=0.8 q=46.4 size=       0KiB time=00:00:00.75 bitrate=   0.5kbits/s speed=0.00644x elapsed=0:01:57.80    \nframe=   94 fps=0.8 q=47.6 size=       0KiB time=00:00:00.76 bitrate=   0.5kbits/s speed=0.00648x elapsed=0:01:58.31    \nframe=   94 fps=0.8 q=47.6 size=       0KiB time=00:00:00.76 bitrate=   0.5kbits/s speed=0.00645x elapsed=0:01:58.83    \nframe=   94 fps=0.8 q=47.6 size=       0KiB time=00:00:00.76 bitrate=   0.5kbits/s speed=0.00642x elapsed=0:01:59.34    \nframe=   94 fps=0.8 q=47.6 size=       0KiB time=00:00:00.76 bitrate=   0.5kbits/s speed=0.0064x elapsed=0:01:59.86    \nframe=   95 fps=0.8 q=47.5 size=       0KiB time=00:00:00.77 bitrate=   0.5kbits/s speed=0.00644x elapsed=0:02:00.38    \nframe=   95 fps=0.8 q=47.5 size=       0KiB time=00:00:00.77 bitrate=   0.5kbits/s speed=0.00641x elapsed=0:02:00.90    \nframe=   96 fps=0.8 q=47.5 size=       0KiB time=00:00:00.78 bitrate=   0.4kbits/s speed=0.00645x elapsed=0:02:01.42    \nframe=   96 fps=0.8 q=47.5 size=       0KiB time=00:00:00.78 bitrate=   0.4kbits/s speed=0.00642x elapsed=0:02:01.94    \nframe=   97 fps=0.8 q=43.4 size=       0KiB time=00:00:00.79 bitrate=   0.4kbits/s speed=0.00646x elapsed=0:02:02.45    \nframe=   97 fps=0.8 q=43.4 size=       0KiB time=00:00:00.79 bitrate=   0.4kbits/s speed=0.00644x elapsed=0:02:02.96    \nframe=   98 fps=0.8 q=46.3 size=       0KiB time=00:00:00.80 bitrate=   0.4kbits/s speed=0.00648x elapsed=0:02:03.48    \nframe=   98 fps=0.8 q=46.3 size=       0KiB time=00:00:00.80 bitrate=   0.4kbits/s speed=0.00645x elapsed=0:02:04.00    \nframe=   99 fps=0.8 q=47.6 size=       0KiB time=00:00:00.80 bitrate=   0.4kbits/s speed=0.00649x elapsed=0:02:04.51    \nframe=  100 fps=0.8 q=46.8 size=       0KiB time=00:00:00.81 bitrate=   0.4kbits/s speed=0.00653x elapsed=0:02:05.03    \nframe=  100 fps=0.8 q=46.8 size=       0KiB time=00:00:00.81 bitrate=   0.4kbits/s speed=0.0065x elapsed=0:02:05.54    \nframe=  101 fps=0.8 q=47.7 size=       0KiB time=00:00:00.82 bitrate=   0.4kbits/s speed=0.00654x elapsed=0:02:06.06    \nframe=  102 fps=0.8 q=42.8 size=       0KiB time=00:00:00.83 bitrate=   0.4kbits/s speed=0.00658x elapsed=0:02:06.58    \nframe=  103 fps=0.8 q=46.3 size=       0KiB time=00:00:00.84 bitrate=   0.4kbits/s speed=0.00662x elapsed=0:02:07.09    \nframe=  104 fps=0.8 q=47.6 size=       0KiB time=00:00:00.85 bitrate=   0.4kbits/s speed=0.00666x elapsed=0:02:07.61    \nframe=  104 fps=0.8 q=47.6 size=       0KiB time=00:00:00.85 bitrate=   0.4kbits/s speed=0.00663x elapsed=0:02:08.12    \nframe=  104 fps=0.8 q=47.6 size=       0KiB time=00:00:00.85 bitrate=   0.4kbits/s speed=0.00661x elapsed=0:02:08.65    \nframe=  105 fps=0.8 q=46.7 size=       0KiB time=00:00:00.85 bitrate=   0.4kbits/s speed=0.00665x elapsed=0:02:09.15    \nframe=  106 fps=0.8 q=47.6 size=       0KiB time=00:00:00.86 bitrate=   0.4kbits/s speed=0.00668x elapsed=0:02:09.67    \nframe=  106 fps=0.8 q=47.6 size=       0KiB time=00:00:00.86 bitrate=   0.4kbits/s speed=0.00666x elapsed=0:02:10.18    \nframe=  108 fps=0.8 q=46.4 size=       0KiB time=00:00:00.88 bitrate=   0.4kbits/s speed=0.00676x elapsed=0:02:10.70    \nframe=  108 fps=0.8 q=46.4 size=       0KiB time=00:00:00.88 bitrate=   0.4kbits/s speed=0.00673x elapsed=0:02:11.22    \nframe=  109 fps=0.8 q=47.7 size=       0KiB time=00:00:00.89 bitrate=   0.4kbits/s speed=0.00677x elapsed=0:02:11.74    \nframe=  109 fps=0.8 q=47.7 size=       0KiB time=00:00:00.89 bitrate=   0.4kbits/s speed=0.00674x elapsed=0:02:12.24    \nframe=  110 fps=0.8 q=46.7 size=       0KiB time=00:00:00.90 bitrate=   0.4kbits/s speed=0.00678x elapsed=0:02:12.77    \nframe=  110 fps=0.8 q=46.7 size=       0KiB time=00:00:00.90 bitrate=   0.4kbits/s speed=0.00675x elapsed=0:02:13.28    \nframe=  111 fps=0.8 q=46.9 size=       0KiB time=00:00:00.90 bitrate=   0.4kbits/s speed=0.00679x elapsed=0:02:13.80    \nframe=  111 fps=0.8 q=46.9 size=       0KiB time=00:00:00.90 bitrate=   0.4kbits/s speed=0.00676x elapsed=0:02:14.30    \nframe=  111 fps=0.8 q=46.9 size=       0KiB time=00:00:00.90 bitrate=   0.4kbits/s speed=0.00674x elapsed=0:02:14.83    \nframe=  111 fps=0.8 q=46.9 size=       0KiB time=00:00:00.90 bitrate=   0.4kbits/s speed=0.00671x elapsed=0:02:15.35    \nframe=  111 fps=0.8 q=46.9 size=       0KiB time=00:00:00.90 bitrate=   0.4kbits/s speed=0.00668x elapsed=0:02:15.88    \nframe=  112 fps=0.8 q=42.6 size=       0KiB time=00:00:00.91 bitrate=   0.4kbits/s speed=0.00672x elapsed=0:02:16.39    \nframe=  112 fps=0.8 q=42.6 size=       0KiB time=00:00:00.91 bitrate=   0.4kbits/s speed=0.0067x elapsed=0:02:16.91    \nframe=  112 fps=0.8 q=42.6 size=       0KiB time=00:00:00.91 bitrate=   0.4kbits/s speed=0.00667x elapsed=0:02:17.44    \nframe=  112 fps=0.8 q=42.6 size=       0KiB time=00:00:00.91 bitrate=   0.4kbits/s speed=0.00664x elapsed=0:02:17.96    \nframe=  112 fps=0.8 q=42.6 size=       0KiB time=00:00:00.91 bitrate=   0.4kbits/s speed=0.00662x elapsed=0:02:18.47    \nframe=  113 fps=0.8 q=45.6 size=       0KiB time=00:00:00.92 bitrate=   0.4kbits/s speed=0.00666x elapsed=0:02:18.98    \nframe=  113 fps=0.8 q=45.6 size=       0KiB time=00:00:00.92 bitrate=   0.4kbits/s speed=0.00663x elapsed=0:02:19.50    \nframe=  114 fps=0.8 q=46.9 size=       0KiB time=00:00:00.93 bitrate=   0.4kbits/s speed=0.00667x elapsed=0:02:20.02    \nframe=  114 fps=0.8 q=46.9 size=       0KiB time=00:00:00.93 bitrate=   0.4kbits/s speed=0.00664x elapsed=0:02:20.52    \nframe=  114 fps=0.8 q=46.9 size=       0KiB time=00:00:00.93 bitrate=   0.4kbits/s speed=0.00662x elapsed=0:02:21.05    \nframe=  115 fps=0.8 q=46.8 size=       0KiB time=00:00:00.94 bitrate=   0.4kbits/s speed=0.00665x elapsed=0:02:21.56    \nframe=  115 fps=0.8 q=46.8 size=       0KiB time=00:00:00.94 bitrate=   0.4kbits/s speed=0.00663x elapsed=0:02:22.07    \nframe=  116 fps=0.8 q=46.8 size=       0KiB time=00:00:00.95 bitrate=   0.4kbits/s speed=0.00666x elapsed=0:02:22.60    \nframe=  116 fps=0.8 q=46.8 size=       0KiB time=00:00:00.95 bitrate=   0.4kbits/s speed=0.00664x elapsed=0:02:23.11    \nframe=  118 fps=0.8 q=45.5 size=       0KiB time=00:00:00.96 bitrate=   0.4kbits/s speed=0.00673x elapsed=0:02:23.62    \nframe=  118 fps=0.8 q=45.5 size=       0KiB time=00:00:00.96 bitrate=   0.4kbits/s speed=0.00671x elapsed=0:02:24.14    \nframe=  118 fps=0.8 q=45.5 size=       0KiB time=00:00:00.96 bitrate=   0.4kbits/s speed=0.00668x elapsed=0:02:24.65    \nframe=  119 fps=0.8 q=46.8 size=       0KiB time=00:00:00.97 bitrate=   0.4kbits/s speed=0.00672x elapsed=0:02:25.17    \nframe=  120 fps=0.8 q=46.7 size=       0KiB time=00:00:00.98 bitrate=   0.4kbits/s speed=0.00675x elapsed=0:02:25.68    \nframe=  120 fps=0.8 q=46.7 size=       0KiB time=00:00:00.98 bitrate=   0.4kbits/s speed=0.00673x elapsed=0:02:26.20    \nframe=  121 fps=0.8 q=46.9 size=       0KiB time=00:00:00.99 bitrate=   0.4kbits/s speed=0.00676x elapsed=0:02:26.72    \nframe=  121 fps=0.8 q=46.9 size=       0KiB time=00:00:00.99 bitrate=   0.4kbits/s speed=0.00673x elapsed=0:02:27.24    \nframe=  122 fps=0.8 q=41.7 size=       0KiB time=00:00:01.00 bitrate=   0.4kbits/s speed=0.00677x elapsed=0:02:27.75    \nframe=  123 fps=0.8 q=45.3 size=       0KiB time=00:00:01.00 bitrate=   0.3kbits/s speed=0.0068x elapsed=0:02:28.27    \nframe=  124 fps=0.8 q=46.7 size=       0KiB time=00:00:01.01 bitrate=   0.3kbits/s speed=0.00683x elapsed=0:02:28.78    \nframe=  124 fps=0.8 q=46.7 size=       0KiB time=00:00:01.01 bitrate=   0.3kbits/s speed=0.00681x elapsed=0:02:29.30    \nframe=  124 fps=0.8 q=46.7 size=       0KiB time=00:00:01.01 bitrate=   0.3kbits/s speed=0.00679x elapsed=0:02:29.81    \nframe=  125 fps=0.8 q=46.6 size=       0KiB time=00:00:01.02 bitrate=   0.3kbits/s speed=0.00682x elapsed=0:02:30.33    \nframe=  125 fps=0.8 q=46.6 size=       0KiB time=00:00:01.02 bitrate=   0.3kbits/s speed=0.00679x elapsed=0:02:30.85    \nframe=  125 fps=0.8 q=46.6 size=       0KiB time=00:00:01.02 bitrate=   0.3kbits/s speed=0.00677x elapsed=0:02:31.35    \nframe=  126 fps=0.8 q=46.8 size=       0KiB time=00:00:01.03 bitrate=   0.3kbits/s speed=0.0068x elapsed=0:02:31.88    \nframe=  126 fps=0.8 q=46.8 size=       0KiB time=00:00:01.03 bitrate=   0.3kbits/s speed=0.00678x elapsed=0:02:32.39    \nframe=  126 fps=0.8 q=46.8 size=       0KiB time=00:00:01.03 bitrate=   0.3kbits/s speed=0.00676x elapsed=0:02:32.91    \nframe=  127 fps=0.8 q=41.7 size=       0KiB time=00:00:01.04 bitrate=   0.3kbits/s speed=0.00679x elapsed=0:02:33.41    \nframe=  128 fps=0.8 q=45.3 size=       0KiB time=00:00:01.05 bitrate=   0.3kbits/s speed=0.00682x elapsed=0:02:33.94    \nframe=  128 fps=0.8 q=45.3 size=       0KiB time=00:00:01.05 bitrate=   0.3kbits/s speed=0.0068x elapsed=0:02:34.45    \nframe=  128 fps=0.8 q=45.3 size=       0KiB time=00:00:01.05 bitrate=   0.3kbits/s speed=0.00678x elapsed=0:02:34.97    \nframe=  129 fps=0.8 q=46.6 size=       0KiB time=00:00:01.05 bitrate=   0.3kbits/s speed=0.00681x elapsed=0:02:35.48    \nframe=  129 fps=0.8 q=46.6 size=       0KiB time=00:00:01.05 bitrate=   0.3kbits/s speed=0.00678x elapsed=0:02:36.00    \nframe=  129 fps=0.8 q=46.6 size=       0KiB time=00:00:01.05 bitrate=   0.3kbits/s speed=0.00676x elapsed=0:02:36.52    \nframe=  130 fps=0.8 q=46.6 size=       0KiB time=00:00:01.06 bitrate=   0.3kbits/s speed=0.00679x elapsed=0:02:37.03    \nframe=  131 fps=0.8 q=46.7 size=       0KiB time=00:00:01.07 bitrate=   0.3kbits/s speed=0.00682x elapsed=0:02:37.55    \nframe=  131 fps=0.8 q=46.7 size=       0KiB time=00:00:01.07 bitrate=   0.3kbits/s speed=0.0068x elapsed=0:02:38.06    \nframe=  132 fps=0.8 q=41.9 size=       0KiB time=00:00:01.08 bitrate=   0.3kbits/s speed=0.00683x elapsed=0:02:38.58    \nframe=  132 fps=0.8 q=41.9 size=       0KiB time=00:00:01.08 bitrate=   0.3kbits/s speed=0.00681x elapsed=0:02:39.09    \nframe=  132 fps=0.8 q=41.9 size=       0KiB time=00:00:01.08 bitrate=   0.3kbits/s speed=0.00679x elapsed=0:02:39.61    \nframe=  133 fps=0.8 q=45.1 size=       0KiB time=00:00:01.09 bitrate=   0.3kbits/s speed=0.00682x elapsed=0:02:40.13    \nframe=  134 fps=0.8 q=46.7 size=       0KiB time=00:00:01.10 bitrate=   0.3kbits/s speed=0.00685x elapsed=0:02:40.64    \nframe=  134 fps=0.8 q=46.7 size=       0KiB time=00:00:01.10 bitrate=   0.3kbits/s speed=0.00683x elapsed=0:02:41.15    \nframe=  135 fps=0.8 q=45.7 size=       0KiB time=00:00:01.10 bitrate=   0.3kbits/s speed=0.00686x elapsed=0:02:41.67    \nframe=  135 fps=0.8 q=45.7 size=       0KiB time=00:00:01.10 bitrate=   0.3kbits/s speed=0.00683x elapsed=0:02:42.18    \nframe=  136 fps=0.8 q=46.7 size=       0KiB time=00:00:01.11 bitrate=   0.3kbits/s speed=0.00686x elapsed=0:02:42.71    \nframe=  137 fps=0.8 q=41.2 size=       0KiB time=00:00:01.12 bitrate=   0.3kbits/s speed=0.00689x elapsed=0:02:43.22    \nframe=  138 fps=0.8 q=45.3 size=       0KiB time=00:00:01.13 bitrate=   0.3kbits/s speed=0.00692x elapsed=0:02:43.73    \nframe=  139 fps=0.8 q=45.4 size=       0KiB time=00:00:01.14 bitrate=   0.3kbits/s speed=0.00695x elapsed=0:02:44.25    \nframe=  139 fps=0.8 q=45.4 size=       0KiB time=00:00:01.14 bitrate=   0.3kbits/s speed=0.00693x elapsed=0:02:44.77    \nframe=  139 fps=0.8 q=45.4 size=       0KiB time=00:00:01.14 bitrate=   0.3kbits/s speed=0.00691x elapsed=0:02:45.28    \nframe=  139 fps=0.8 q=45.4 size=       0KiB time=00:00:01.14 bitrate=   0.3kbits/s speed=0.00689x elapsed=0:02:45.79    \nframe=  140 fps=0.8 q=46.4 size=       0KiB time=00:00:01.15 bitrate=   0.3kbits/s speed=0.00691x elapsed=0:02:46.32    \nframe=  140 fps=0.8 q=46.4 size=       0KiB time=00:00:01.15 bitrate=   0.3kbits/s speed=0.00689x elapsed=0:02:46.82    \nframe=  141 fps=0.8 q=46.8 size=       0KiB time=00:00:01.15 bitrate=   0.3kbits/s speed=0.00692x elapsed=0:02:47.34    \nframe=  141 fps=0.8 q=46.8 size=       0KiB time=00:00:01.15 bitrate=   0.3kbits/s speed=0.0069x elapsed=0:02:47.86    \nframe=  143 fps=0.8 q=44.7 size=       0KiB time=00:00:01.17 bitrate=   0.3kbits/s speed=0.00698x elapsed=0:02:48.37    \nframe=  143 fps=0.8 q=44.7 size=       0KiB time=00:00:01.17 bitrate=   0.3kbits/s speed=0.00696x elapsed=0:02:48.89    \nframe=  144 fps=0.9 q=45.5 size=       0KiB time=00:00:01.18 bitrate=   0.3kbits/s speed=0.00699x elapsed=0:02:49.40    \nframe=  144 fps=0.8 q=45.5 size=       0KiB time=00:00:01.18 bitrate=   0.3kbits/s speed=0.00696x elapsed=0:02:49.92    \nframe=  144 fps=0.8 q=45.5 size=       0KiB time=00:00:01.18 bitrate=   0.3kbits/s speed=0.00694x elapsed=0:02:50.44    \nframe=  145 fps=0.8 q=45.8 size=       0KiB time=00:00:01.19 bitrate=   0.3kbits/s speed=0.00697x elapsed=0:02:50.95    \nframe=  145 fps=0.8 q=45.8 size=       0KiB time=00:00:01.19 bitrate=   0.3kbits/s speed=0.00695x elapsed=0:02:51.47    \nframe=  145 fps=0.8 q=45.8 size=       0KiB time=00:00:01.19 bitrate=   0.3kbits/s speed=0.00693x elapsed=0:02:51.98    \nframe=  145 fps=0.8 q=45.8 size=       0KiB time=00:00:01.19 bitrate=   0.3kbits/s speed=0.00691x elapsed=0:02:52.50    \nframe=  146 fps=0.8 q=46.7 size=       0KiB time=00:00:01.20 bitrate=   0.3kbits/s speed=0.00694x elapsed=0:02:53.02    \nframe=  146 fps=0.8 q=46.7 size=       0KiB time=00:00:01.20 bitrate=   0.3kbits/s speed=0.00692x elapsed=0:02:53.52    \nframe=  148 fps=0.9 q=44.4 size=       0KiB time=00:00:01.21 bitrate=   0.3kbits/s speed=0.00699x elapsed=0:02:54.05    \nframe=  148 fps=0.8 q=44.4 size=       0KiB time=00:00:01.21 bitrate=   0.3kbits/s speed=0.00697x elapsed=0:02:54.56    \nframe=  149 fps=0.9 q=45.6 size=       0KiB time=00:00:01.22 bitrate=   0.3kbits/s speed=0.007x elapsed=0:02:55.10    \nframe=  150 fps=0.9 q=45.7 size=       0KiB time=00:00:01.22 bitrate=   0.3kbits/s speed=0.00697x elapsed=0:02:55.63    \nframe=  151 fps=0.9 q=45.8 size=       0KiB time=00:00:01.24 bitrate=   0.3kbits/s speed=0.00705x elapsed=0:02:56.19    \nframe=  151 fps=0.9 q=45.8 size=       0KiB time=00:00:01.24 bitrate=   0.3kbits/s speed=0.00703x elapsed=0:02:56.72    \nframe=  152 fps=0.9 q=40.3 size=       0KiB time=00:00:01.25 bitrate=   0.3kbits/s speed=0.00705x elapsed=0:02:57.25    \nframe=  153 fps=0.9 q=44.3 size=       0KiB time=00:00:01.25 bitrate=   0.3kbits/s speed=0.00708x elapsed=0:02:57.77    \nframe=  153 fps=0.9 q=44.3 size=       0KiB time=00:00:01.25 bitrate=   0.3kbits/s speed=0.00706x elapsed=0:02:58.30    \nframe=  154 fps=0.9 q=45.4 size=       0KiB time=00:00:01.26 bitrate=   0.3kbits/s speed=0.00708x elapsed=0:02:58.81    \nframe=  154 fps=0.9 q=45.4 size=       0KiB time=00:00:01.26 bitrate=   0.3kbits/s speed=0.00706x elapsed=0:02:59.33    \nframe=  154 fps=0.9 q=45.4 size=       0KiB time=00:00:01.26 bitrate=   0.3kbits/s speed=0.00704x elapsed=0:02:59.84    \nframe=  155 fps=0.9 q=45.4 size=       0KiB time=00:00:01.27 bitrate=   0.3kbits/s speed=0.00707x elapsed=0:03:00.36    \nframe=  155 fps=0.9 q=45.4 size=       0KiB time=00:00:01.27 bitrate=   0.3kbits/s speed=0.00705x elapsed=0:03:00.89    \nframe=  156 fps=0.9 q=45.7 size=       0KiB time=00:00:01.28 bitrate=   0.3kbits/s speed=0.00707x elapsed=0:03:01.41    \nframe=  156 fps=0.9 q=45.7 size=       0KiB time=00:00:01.28 bitrate=   0.3kbits/s speed=0.00705x elapsed=0:03:01.92    \nframe=  157 fps=0.9 q=40.2 size=       0KiB time=00:00:01.29 bitrate=   0.3kbits/s speed=0.00708x elapsed=0:03:02.44    \nframe=  158 fps=0.9 q=43.6 size=       0KiB time=00:00:01.30 bitrate=   0.3kbits/s speed=0.00711x elapsed=0:03:02.96    \nframe=  159 fps=0.9 q=44.6 size=       0KiB time=00:00:01.30 bitrate=   0.3kbits/s speed=0.00713x elapsed=0:03:03.47    \nframe=  159 fps=0.9 q=44.6 size=       0KiB time=00:00:01.30 bitrate=   0.3kbits/s speed=0.00711x elapsed=0:03:03.99    \nframe=  159 fps=0.9 q=44.6 size=       0KiB time=00:00:01.30 bitrate=   0.3kbits/s speed=0.00709x elapsed=0:03:04.52    \nframe=  159 fps=0.9 q=44.6 size=       0KiB time=00:00:01.30 bitrate=   0.3kbits/s speed=0.00707x elapsed=0:03:05.05    \nframe=  160 fps=0.9 q=44.7 size=       0KiB time=00:00:01.31 bitrate=   0.3kbits/s speed=0.0071x elapsed=0:03:05.56    \nframe=  160 fps=0.9 q=44.7 size=       0KiB time=00:00:01.31 bitrate=   0.3kbits/s speed=0.00708x elapsed=0:03:06.07    \nframe=  161 fps=0.9 q=44.9 size=       0KiB time=00:00:01.32 bitrate=   0.3kbits/s speed=0.0071x elapsed=0:03:06.60    \nframe=  161 fps=0.9 q=44.9 size=       0KiB time=00:00:01.32 bitrate=   0.3kbits/s speed=0.00708x elapsed=0:03:07.11    \nframe=  162 fps=0.9 q=39.2 size=       0KiB time=00:00:01.33 bitrate=   0.3kbits/s speed=0.00711x elapsed=0:03:07.62    \nframe=  163 fps=0.9 q=43.7 size=       0KiB time=00:00:01.34 bitrate=   0.3kbits/s speed=0.00713x elapsed=0:03:08.15    \nframe=  164 fps=0.9 q=44.7 size=       0KiB time=00:00:01.35 bitrate=   0.3kbits/s speed=0.00716x elapsed=0:03:08.67    \nframe=  164 fps=0.9 q=44.7 size=       0KiB time=00:00:01.35 bitrate=   0.3kbits/s speed=0.00714x elapsed=0:03:09.19    \nframe=  165 fps=0.9 q=44.6 size=       0KiB time=00:00:01.35 bitrate=   0.3kbits/s speed=0.00716x elapsed=0:03:09.70    \nframe=  165 fps=0.9 q=44.6 size=       0KiB time=00:00:01.35 bitrate=   0.3kbits/s speed=0.00714x elapsed=0:03:10.21    \nframe=  165 fps=0.9 q=44.6 size=       0KiB time=00:00:01.35 bitrate=   0.3kbits/s speed=0.00712x elapsed=0:03:10.74    \nframe=  166 fps=0.9 q=44.9 size=       0KiB time=00:00:01.36 bitrate=   0.3kbits/s speed=0.00715x elapsed=0:03:11.25    \nframe=  167 fps=0.9 q=39.9 size=       0KiB time=00:00:01.37 bitrate=   0.3kbits/s speed=0.00717x elapsed=0:03:11.77    \nframe=  168 fps=0.9 q=43.6 size=       0KiB time=00:00:01.38 bitrate=   0.3kbits/s speed=0.00719x elapsed=0:03:12.28    \nframe=  168 fps=0.9 q=43.6 size=       0KiB time=00:00:01.38 bitrate=   0.3kbits/s speed=0.00717x elapsed=0:03:12.80    \nframe=  169 fps=0.9 q=44.6 size=       0KiB time=00:00:01.39 bitrate=   0.3kbits/s speed=0.0072x elapsed=0:03:13.32    \nframe=  169 fps=0.9 q=44.6 size=       0KiB time=00:00:01.39 bitrate=   0.3kbits/s speed=0.00718x elapsed=0:03:13.83    \nframe=  170 fps=0.9 q=44.3 size=       0KiB time=00:00:01.40 bitrate=   0.3kbits/s speed=0.0072x elapsed=0:03:14.35    \nframe=  170 fps=0.9 q=44.3 size=       0KiB time=00:00:01.40 bitrate=   0.3kbits/s speed=0.00718x elapsed=0:03:14.86    \nframe=  171 fps=0.9 q=44.5 size=       0KiB time=00:00:01.40 bitrate=   0.2kbits/s speed=0.00721x elapsed=0:03:15.37    \nframe=  171 fps=0.9 q=44.5 size=       0KiB time=00:00:01.40 bitrate=   0.2kbits/s speed=0.00719x elapsed=0:03:15.89    \nframe=  172 fps=0.9 q=40.6 size=       0KiB time=00:00:01.41 bitrate=   0.2kbits/s speed=0.00721x elapsed=0:03:16.40    \nframe=  172 fps=0.9 q=40.6 size=       0KiB time=00:00:01.41 bitrate=   0.2kbits/s speed=0.00719x elapsed=0:03:16.92    \nframe=  173 fps=0.9 q=43.5 size=       0KiB time=00:00:01.42 bitrate=   0.2kbits/s speed=0.00722x elapsed=0:03:17.43    \nframe=  173 fps=0.9 q=43.5 size=       0KiB time=00:00:01.42 bitrate=   0.2kbits/s speed=0.0072x elapsed=0:03:17.95    \nframe=  174 fps=0.9 q=44.5 size=       0KiB time=00:00:01.43 bitrate=   0.2kbits/s speed=0.00722x elapsed=0:03:18.47    \nframe=  174 fps=0.9 q=44.5 size=       0KiB time=00:00:01.43 bitrate=   0.2kbits/s speed=0.0072x elapsed=0:03:18.99    \nframe=  175 fps=0.9 q=44.3 size=       0KiB time=00:00:01.44 bitrate=   0.2kbits/s speed=0.00723x elapsed=0:03:19.50    \nframe=  175 fps=0.9 q=44.3 size=       0KiB time=00:00:01.44 bitrate=   0.2kbits/s speed=0.00721x elapsed=0:03:20.02    \nframe=  176 fps=0.9 q=44.5 size=       0KiB time=00:00:01.45 bitrate=   0.2kbits/s speed=0.00723x elapsed=0:03:20.53    \nframe=  176 fps=0.9 q=44.5 size=       0KiB time=00:00:01.45 bitrate=   0.2kbits/s speed=0.00721x elapsed=0:03:21.05    \nframe=  176 fps=0.9 q=44.5 size=       0KiB time=00:00:01.45 bitrate=   0.2kbits/s speed=0.00719x elapsed=0:03:21.56    \nframe=  176 fps=0.9 q=44.5 size=       0KiB time=00:00:01.45 bitrate=   0.2kbits/s speed=0.00718x elapsed=0:03:22.08    \nframe=  177 fps=0.9 q=39.8 size=       0KiB time=00:00:01.45 bitrate=   0.2kbits/s speed=0.0072x elapsed=0:03:22.60    \nframe=  177 fps=0.9 q=39.8 size=       0KiB time=00:00:01.45 bitrate=   0.2kbits/s speed=0.00718x elapsed=0:03:23.11    \nframe=  178 fps=0.9 q=43.5 size=       0KiB time=00:00:01.46 bitrate=   0.2kbits/s speed=0.0072x elapsed=0:03:23.62    \nframe=  179 fps=0.9 q=43.7 size=       0KiB time=00:00:01.47 bitrate=   0.2kbits/s speed=0.00723x elapsed=0:03:24.13    \nframe=  180 fps=0.9 q=44.2 size=       0KiB time=00:00:01.48 bitrate=   0.2kbits/s speed=0.00725x elapsed=0:03:24.65    \nframe=  180 fps=0.9 q=44.2 size=       0KiB time=00:00:01.48 bitrate=   0.2kbits/s speed=0.00723x elapsed=0:03:25.17    \nframe=  181 fps=0.9 q=44.3 size=       0KiB time=00:00:01.49 bitrate=   0.2kbits/s speed=0.00725x elapsed=0:03:25.68    \nframe=  181 fps=0.9 q=44.3 size=       0KiB time=00:00:01.49 bitrate=   0.2kbits/s speed=0.00723x elapsed=0:03:26.20    \nframe=  182 fps=0.9 q=39.8 size=       0KiB time=00:00:01.50 bitrate=   0.2kbits/s speed=0.00726x elapsed=0:03:26.72    \nframe=  183 fps=0.9 q=43.7 size=       0KiB time=00:00:01.50 bitrate=   0.2kbits/s speed=0.00728x elapsed=0:03:27.23    \nframe=  183 fps=0.9 q=43.7 size=       0KiB time=00:00:01.50 bitrate=   0.2kbits/s speed=0.00726x elapsed=0:03:27.75    \nframe=  184 fps=0.9 q=43.6 size=       0KiB time=00:00:01.51 bitrate=   0.2kbits/s speed=0.00728x elapsed=0:03:28.26    \nframe=  184 fps=0.9 q=43.6 size=       0KiB time=00:00:01.51 bitrate=   0.2kbits/s speed=0.00726x elapsed=0:03:28.79    \nframe=  184 fps=0.9 q=43.6 size=       0KiB time=00:00:01.51 bitrate=   0.2kbits/s speed=0.00725x elapsed=0:03:29.29    \nframe=  184 fps=0.9 q=43.6 size=       0KiB time=00:00:01.51 bitrate=   0.2kbits/s speed=0.00723x elapsed=0:03:29.81    \nframe=  185 fps=0.9 q=44.4 size=       0KiB time=00:00:01.52 bitrate=   0.2kbits/s speed=0.00725x elapsed=0:03:30.33    \nframe=  185 fps=0.9 q=44.4 size=       0KiB time=00:00:01.52 bitrate=   0.2kbits/s speed=0.00723x elapsed=0:03:30.85    \nframe=  186 fps=0.9 q=44.6 size=       0KiB time=00:00:01.53 bitrate=   0.2kbits/s speed=0.00725x elapsed=0:03:31.36    \nframe=  186 fps=0.9 q=44.6 size=       0KiB time=00:00:01.53 bitrate=   0.2kbits/s speed=0.00724x elapsed=0:03:31.88    \nframe=  187 fps=0.9 q=39.8 size=       0KiB time=00:00:01.54 bitrate=   0.2kbits/s speed=0.00726x elapsed=0:03:32.38    \nframe=  187 fps=0.9 q=39.8 size=       0KiB time=00:00:01.54 bitrate=   0.2kbits/s speed=0.00724x elapsed=0:03:32.90    \nframe=  188 fps=0.9 q=43.6 size=       0KiB time=00:00:01.55 bitrate=   0.2kbits/s speed=0.00726x elapsed=0:03:33.42    \nframe=  189 fps=0.9 q=44.4 size=       0KiB time=00:00:01.55 bitrate=   0.2kbits/s speed=0.00728x elapsed=0:03:33.94    \nframe=  189 fps=0.9 q=44.4 size=       0KiB time=00:00:01.55 bitrate=   0.2kbits/s speed=0.00727x elapsed=0:03:34.45    \nframe=  189 fps=0.9 q=44.4 size=       0KiB time=00:00:01.55 bitrate=   0.2kbits/s speed=0.00725x elapsed=0:03:34.97    \nframe=  190 fps=0.9 q=44.3 size=       0KiB time=00:00:01.55 bitrate=   0.2kbits/s speed=0.00723x elapsed=0:03:35.48    \nframe=  190 fps=0.9 q=44.3 size=       0KiB time=00:00:01.56 bitrate=   0.2kbits/s speed=0.00725x elapsed=0:03:36.00    \nframe=  191 fps=0.9 q=44.5 size=       0KiB time=00:00:01.57 bitrate=   0.2kbits/s speed=0.00727x elapsed=0:03:36.51    \nframe=  191 fps=0.9 q=44.5 size=       0KiB time=00:00:01.57 bitrate=   0.2kbits/s speed=0.00726x elapsed=0:03:37.03    \nframe=  192 fps=0.9 q=41.0 size=       0KiB time=00:00:01.58 bitrate=   0.2kbits/s speed=0.00728x elapsed=0:03:37.55    \nframe=  193 fps=0.9 q=44.3 size=       0KiB time=00:00:01.59 bitrate=   0.2kbits/s speed=0.0073x elapsed=0:03:38.06    \nframe=  193 fps=0.9 q=44.3 size=       0KiB time=00:00:01.59 bitrate=   0.2kbits/s speed=0.00728x elapsed=0:03:38.58    \nframe=  194 fps=0.9 q=44.4 size=       0KiB time=00:00:01.60 bitrate=   0.2kbits/s speed=0.0073x elapsed=0:03:39.11    \nframe=  194 fps=0.9 q=44.4 size=       0KiB time=00:00:01.60 bitrate=   0.2kbits/s speed=0.00729x elapsed=0:03:39.62    \nframe=  194 fps=0.9 q=44.4 size=       0KiB time=00:00:01.60 bitrate=   0.2kbits/s speed=0.00727x elapsed=0:03:40.14    \nframe=  194 fps=0.9 q=44.4 size=       0KiB time=00:00:01.60 bitrate=   0.2kbits/s speed=0.00725x elapsed=0:03:40.66    \nframe=  195 fps=0.9 q=44.5 size=       0KiB time=00:00:01.60 bitrate=   0.2kbits/s speed=0.00727x elapsed=0:03:41.18    \nframe=  195 fps=0.9 q=44.5 size=       0KiB time=00:00:01.60 bitrate=   0.2kbits/s speed=0.00725x elapsed=0:03:41.69    \nframe=  195 fps=0.9 q=44.5 size=       0KiB time=00:00:01.60 bitrate=   0.2kbits/s speed=0.00724x elapsed=0:03:42.20    \nframe=  196 fps=0.9 q=44.3 size=       0KiB time=00:00:01.61 bitrate=   0.2kbits/s speed=0.00726x elapsed=0:03:42.72    \nframe=  196 fps=0.9 q=44.3 size=       0KiB time=00:00:01.61 bitrate=   0.2kbits/s speed=0.00724x elapsed=0:03:43.23    \nframe=  197 fps=0.9 q=41.0 size=       0KiB time=00:00:01.62 bitrate=   0.2kbits/s speed=0.00726x elapsed=0:03:43.75    \nframe=  197 fps=0.9 q=41.0 size=       0KiB time=00:00:01.62 bitrate=   0.2kbits/s speed=0.00725x elapsed=0:03:44.26    \nframe=  198 fps=0.9 q=43.7 size=       0KiB time=00:00:01.63 bitrate=   0.2kbits/s speed=0.00727x elapsed=0:03:44.78    \nframe=  199 fps=0.9 q=44.4 size=       0KiB time=00:00:01.64 bitrate=   0.2kbits/s speed=0.00729x elapsed=0:03:45.30    \nframe=  200 fps=0.9 q=44.3 size=       0KiB time=00:00:01.65 bitrate=   0.2kbits/s speed=0.00731x elapsed=0:03:45.82    \nframe=  200 fps=0.9 q=44.3 size=       0KiB time=00:00:01.65 bitrate=   0.2kbits/s speed=0.00729x elapsed=0:03:46.32    \nframe=  201 fps=0.9 q=44.4 size=       0KiB time=00:00:01.65 bitrate=   0.2kbits/s speed=0.00731x elapsed=0:03:46.84    \nframe=  201 fps=0.9 q=44.4 size=       0KiB time=00:00:01.65 bitrate=   0.2kbits/s speed=0.00729x elapsed=0:03:47.35    \nframe=  201 fps=0.9 q=44.4 size=       0KiB time=00:00:01.65 bitrate=   0.2kbits/s speed=0.00728x elapsed=0:03:47.87    \nframe=  201 fps=0.9 q=44.4 size=       0KiB time=00:00:01.65 bitrate=   0.2kbits/s speed=0.00726x elapsed=0:03:48.40    \nframe=  201 fps=0.9 q=44.4 size=       0KiB time=00:00:01.65 bitrate=   0.2kbits/s speed=0.00724x elapsed=0:03:48.92    \nframe=  201 fps=0.9 q=44.4 size=       0KiB time=00:00:01.65 bitrate=   0.2kbits/s speed=0.00723x elapsed=0:03:49.44    \nframe=  202 fps=0.9 q=40.0 size=       0KiB time=00:00:01.66 bitrate=   0.2kbits/s speed=0.00725x elapsed=0:03:49.95    \nframe=  203 fps=0.9 q=44.4 size=       0KiB time=00:00:01.67 bitrate=   0.2kbits/s speed=0.00727x elapsed=0:03:50.48    \nframe=  203 fps=0.9 q=44.4 size=       0KiB time=00:00:01.67 bitrate=   0.2kbits/s speed=0.00725x elapsed=0:03:50.98    \nframe=  204 fps=0.9 q=44.5 size=       0KiB time=00:00:01.68 bitrate=   0.2kbits/s speed=0.00727x elapsed=0:03:51.50    \nframe=  204 fps=0.9 q=44.5 size=       0KiB time=00:00:01.68 bitrate=   0.2kbits/s speed=0.00726x elapsed=0:03:52.02    \nframe=  205 fps=0.9 q=44.4 size=       0KiB time=00:00:01.69 bitrate=   0.2kbits/s speed=0.00728x elapsed=0:03:52.52    \nframe=  205 fps=0.9 q=44.4 size=       0KiB time=00:00:01.69 bitrate=   0.2kbits/s speed=0.00726x elapsed=0:03:53.05    \nframe=  205 fps=0.9 q=44.4 size=       0KiB time=00:00:01.69 bitrate=   0.2kbits/s speed=0.00724x elapsed=0:03:53.56    \nframe=  206 fps=0.9 q=44.5 size=       0KiB time=00:00:01.70 bitrate=   0.2kbits/s speed=0.00726x elapsed=0:03:54.07    \nframe=  206 fps=0.9 q=44.5 size=       0KiB time=00:00:01.70 bitrate=   0.2kbits/s speed=0.00725x elapsed=0:03:54.60    \nframe=  206 fps=0.9 q=44.5 size=       0KiB time=00:00:01.70 bitrate=   0.2kbits/s speed=0.00723x elapsed=0:03:55.12    \nframe=  207 fps=0.9 q=40.9 size=       0KiB time=00:00:01.70 bitrate=   0.2kbits/s speed=0.00725x elapsed=0:03:55.62    \nframe=  208 fps=0.9 q=44.3 size=       0KiB time=00:00:01.71 bitrate=   0.2kbits/s speed=0.00727x elapsed=0:03:56.15    \nframe=  208 fps=0.9 q=44.3 size=       0KiB time=00:00:01.71 bitrate=   0.2kbits/s speed=0.00725x elapsed=0:03:56.67    \nframe=  209 fps=0.9 q=45.3 size=       0KiB time=00:00:01.72 bitrate=   0.2kbits/s speed=0.00727x elapsed=0:03:57.18    \nframe=  210 fps=0.9 q=45.1 size=       0KiB time=00:00:01.73 bitrate=   0.2kbits/s speed=0.00729x elapsed=0:03:57.70    \nframe=  210 fps=0.9 q=45.1 size=       0KiB time=00:00:01.73 bitrate=   0.2kbits/s speed=0.00728x elapsed=0:03:58.22    \nframe=  211 fps=0.9 q=44.5 size=       0KiB time=00:00:01.74 bitrate=   0.2kbits/s speed=0.0073x elapsed=0:03:58.73    \nframe=  211 fps=0.9 q=44.5 size=       0KiB time=00:00:01.74 bitrate=   0.2kbits/s speed=0.00728x elapsed=0:03:59.25    \nframe=  212 fps=0.9 q=40.4 size=       0KiB time=00:00:01.75 bitrate=   0.2kbits/s speed=0.0073x elapsed=0:03:59.77    \nframe=  212 fps=0.9 q=40.4 size=       0KiB time=00:00:01.75 bitrate=   0.2kbits/s speed=0.00728x elapsed=0:04:00.28    \nframe=  212 fps=0.9 q=40.4 size=       0KiB time=00:00:01.75 bitrate=   0.2kbits/s speed=0.00727x elapsed=0:04:00.79    \nframe=  213 fps=0.9 q=44.4 size=       0KiB time=00:00:01.75 bitrate=   0.2kbits/s speed=0.00729x elapsed=0:04:01.31    \nframe=  213 fps=0.9 q=44.4 size=       0KiB time=00:00:01.75 bitrate=   0.2kbits/s speed=0.00727x elapsed=0:04:01.83    \nframe=  214 fps=0.9 q=45.4 size=       0KiB time=00:00:01.76 bitrate=   0.2kbits/s speed=0.00729x elapsed=0:04:02.34    \nframe=  215 fps=0.9 q=44.6 size=       0KiB time=00:00:01.77 bitrate=   0.2kbits/s speed=0.00731x elapsed=0:04:02.85    \nframe=  215 fps=0.9 q=44.6 size=       0KiB time=00:00:01.77 bitrate=   0.2kbits/s speed=0.00729x elapsed=0:04:03.37    \nframe=  215 fps=0.9 q=44.6 size=       0KiB time=00:00:01.77 bitrate=   0.2kbits/s speed=0.00728x elapsed=0:04:03.89    \nframe=  215 fps=0.9 q=44.6 size=       0KiB time=00:00:01.77 bitrate=   0.2kbits/s speed=0.00726x elapsed=0:04:04.40    \nframe=  216 fps=0.9 q=44.5 size=       0KiB time=00:00:01.78 bitrate=   0.2kbits/s speed=0.00728x elapsed=0:04:04.92    \nframe=  217 fps=0.9 q=40.8 size=       0KiB time=00:00:01.79 bitrate=   0.2kbits/s speed=0.0073x elapsed=0:04:05.43    \nframe=  217 fps=0.9 q=40.8 size=       0KiB time=00:00:01.79 bitrate=   0.2kbits/s speed=0.00728x elapsed=0:04:05.95    \nframe=  218 fps=0.9 q=44.4 size=       0KiB time=00:00:01.80 bitrate=   0.2kbits/s speed=0.0073x elapsed=0:04:06.47    \nframe=  219 fps=0.9 q=44.7 size=       0KiB time=00:00:01.80 bitrate=   0.2kbits/s speed=0.00732x elapsed=0:04:06.98    \nframe=  219 fps=0.9 q=44.7 size=       0KiB time=00:00:01.80 bitrate=   0.2kbits/s speed=0.00731x elapsed=0:04:07.51    \nframe=  220 fps=0.9 q=44.7 size=       0KiB time=00:00:01.81 bitrate=   0.2kbits/s speed=0.00732x elapsed=0:04:08.02    \nframe=  220 fps=0.9 q=44.7 size=       0KiB time=00:00:01.81 bitrate=   0.2kbits/s speed=0.00731x elapsed=0:04:08.53    \nframe=  220 fps=0.9 q=44.7 size=       0KiB time=00:00:01.81 bitrate=   0.2kbits/s speed=0.00729x elapsed=0:04:09.04    \nframe=  221 fps=0.9 q=44.3 size=       0KiB time=00:00:01.82 bitrate=   0.2kbits/s speed=0.00731x elapsed=0:04:09.56    \nframe=  222 fps=0.9 q=41.1 size=       0KiB time=00:00:01.83 bitrate=   0.2kbits/s speed=0.00733x elapsed=0:04:10.07    \nframe=  222 fps=0.9 q=41.1 size=       0KiB time=00:00:01.83 bitrate=   0.2kbits/s speed=0.00732x elapsed=0:04:10.59    \nframe=  223 fps=0.9 q=44.3 size=       0KiB time=00:00:01.84 bitrate=   0.2kbits/s speed=0.00733x elapsed=0:04:11.10    \nframe=  223 fps=0.9 q=44.3 size=       0KiB time=00:00:01.84 bitrate=   0.2kbits/s speed=0.00732x elapsed=0:04:11.62    \nframe=  223 fps=0.9 q=44.3 size=       0KiB time=00:00:01.84 bitrate=   0.2kbits/s speed=0.0073x elapsed=0:04:12.14    \nframe=  224 fps=0.9 q=44.7 size=       0KiB time=00:00:01.85 bitrate=   0.2kbits/s speed=0.00732x elapsed=0:04:12.66    \nframe=  224 fps=0.9 q=44.7 size=       0KiB time=00:00:01.85 bitrate=   0.2kbits/s speed=0.00731x elapsed=0:04:13.17    \nframe=  225 fps=0.9 q=44.5 size=       0KiB time=00:00:01.85 bitrate=   0.2kbits/s speed=0.00733x elapsed=0:04:13.68    \nframe=  225 fps=0.9 q=44.5 size=       0KiB time=00:00:01.85 bitrate=   0.2kbits/s speed=0.00731x elapsed=0:04:14.21    \nframe=  226 fps=0.9 q=44.5 size=       0KiB time=00:00:01.86 bitrate=   0.2kbits/s speed=0.00733x elapsed=0:04:14.73    \nframe=  227 fps=0.9 q=43.0 size=       0KiB time=00:00:01.87 bitrate=   0.2kbits/s speed=0.00735x elapsed=0:04:15.24    \nframe=  227 fps=0.9 q=43.0 size=       0KiB time=00:00:01.87 bitrate=   0.2kbits/s speed=0.00733x elapsed=0:04:15.75    \nframe=  228 fps=0.9 q=46.7 size=       0KiB time=00:00:01.88 bitrate=   0.2kbits/s speed=0.00735x elapsed=0:04:16.26    \nframe=  229 fps=0.9 q=47.3 size=       0KiB time=00:00:01.89 bitrate=   0.2kbits/s speed=0.00737x elapsed=0:04:16.78    \nframe=  230 fps=0.9 q=47.5 size=       0KiB time=00:00:01.90 bitrate=   0.2kbits/s speed=0.00738x elapsed=0:04:17.30    \nframe=  230 fps=0.9 q=47.5 size=       0KiB time=00:00:01.90 bitrate=   0.2kbits/s speed=0.00737x elapsed=0:04:17.82    \nframe=  231 fps=0.9 q=48.4 size=       0KiB time=00:00:01.90 bitrate=   0.2kbits/s speed=0.00739x elapsed=0:04:18.32    \nframe=  232 fps=0.9 q=44.3 size=       0KiB time=00:00:01.91 bitrate=   0.2kbits/s speed=0.0074x elapsed=0:04:18.85    \nframe=  232 fps=0.9 q=44.3 size=       0KiB time=00:00:01.91 bitrate=   0.2kbits/s speed=0.00739x elapsed=0:04:19.36    \nframe=  233 fps=0.9 q=47.7 size=       0KiB time=00:00:01.92 bitrate=   0.2kbits/s speed=0.00741x elapsed=0:04:19.87    \nframe=  234 fps=0.9 q=48.6 size=       0KiB time=00:00:01.93 bitrate=   0.2kbits/s speed=0.00742x elapsed=0:04:20.39    \nframe=  235 fps=0.9 q=48.4 size=       0KiB time=00:00:01.94 bitrate=   0.2kbits/s speed=0.00744x elapsed=0:04:20.90    \nframe=  236 fps=0.9 q=48.8 size=       0KiB time=00:00:01.95 bitrate=   0.2kbits/s speed=0.00746x elapsed=0:04:21.42    \nframe=  236 fps=0.9 q=48.8 size=       0KiB time=00:00:01.95 bitrate=   0.2kbits/s speed=0.00744x elapsed=0:04:21.94    \nframe=  237 fps=0.9 q=43.5 size=       0KiB time=00:00:01.95 bitrate=   0.2kbits/s speed=0.00746x elapsed=0:04:22.45    \nframe=  238 fps=0.9 q=47.7 size=       0KiB time=00:00:01.96 bitrate=   0.2kbits/s speed=0.00748x elapsed=0:04:22.97    \nframe=  238 fps=0.9 q=47.7 size=       0KiB time=00:00:01.96 bitrate=   0.2kbits/s speed=0.00746x elapsed=0:04:23.49    \nframe=  240 fps=0.9 q=48.4 size=       0KiB time=00:00:01.98 bitrate=   0.2kbits/s speed=0.00751x elapsed=0:04:23.99    \nframe=  241 fps=0.9 q=48.6 size=       0KiB time=00:00:01.99 bitrate=   0.2kbits/s speed=0.00753x elapsed=0:04:24.52    \nframe=  241 fps=0.9 q=48.6 size=       0KiB time=00:00:01.99 bitrate=   0.2kbits/s speed=0.00751x elapsed=0:04:25.03    \nframe=  242 fps=0.9 q=43.9 size=       0KiB time=00:00:02.00 bitrate=   0.2kbits/s speed=0.00753x elapsed=0:04:25.54    \nframe=  243 fps=0.9 q=47.6 size=       0KiB time=00:00:02.00 bitrate=   0.2kbits/s speed=0.00755x elapsed=0:04:26.07    \nframe=  243 fps=0.9 q=47.6 size=       0KiB time=00:00:02.00 bitrate=   0.2kbits/s speed=0.00753x elapsed=0:04:26.60    \nframe=  244 fps=0.9 q=48.8 size=       0KiB time=00:00:02.01 bitrate=   0.2kbits/s speed=0.00755x elapsed=0:04:27.10    \nframe=  244 fps=0.9 q=48.8 size=       0KiB time=00:00:02.01 bitrate=   0.2kbits/s speed=0.00754x elapsed=0:04:27.62    \nframe=  244 fps=0.9 q=48.8 size=       0KiB time=00:00:02.01 bitrate=   0.2kbits/s speed=0.00752x elapsed=0:04:28.14    \nframe=  244 fps=0.9 q=48.8 size=       0KiB time=00:00:02.01 bitrate=   0.2kbits/s speed=0.00751x elapsed=0:04:28.65    \nframe=  244 fps=0.9 q=48.8 size=       0KiB time=00:00:02.01 bitrate=   0.2kbits/s speed=0.00749x elapsed=0:04:29.17    \nframe=  244 fps=0.9 q=48.8 size=       0KiB time=00:00:02.01 bitrate=   0.2kbits/s speed=0.00748x elapsed=0:04:29.69    \nframe=  244 fps=0.9 q=48.8 size=       0KiB time=00:00:02.01 bitrate=   0.2kbits/s speed=0.00746x elapsed=0:04:30.20    \nframe=  245 fps=0.9 q=48.8 size=       0KiB time=00:00:02.02 bitrate=   0.2kbits/s speed=0.00748x elapsed=0:04:30.72    \nframe=  245 fps=0.9 q=48.8 size=       0KiB time=00:00:02.02 bitrate=   0.2kbits/s speed=0.00747x elapsed=0:04:31.23    \nframe=  246 fps=0.9 q=48.7 size=       0KiB time=00:00:02.03 bitrate=   0.2kbits/s speed=0.00748x elapsed=0:04:31.75    \nframe=  246 fps=0.9 q=48.7 size=       0KiB time=00:00:02.03 bitrate=   0.2kbits/s speed=0.00747x elapsed=0:04:32.26    \nframe=  247 fps=0.9 q=37.2 size=       0KiB time=00:00:02.04 bitrate=   0.2kbits/s speed=0.00748x elapsed=0:04:32.78    \nframe=  247 fps=0.9 q=37.2 size=       0KiB time=00:00:02.04 bitrate=   0.2kbits/s speed=0.00747x elapsed=0:04:33.30    \nframe=  248 fps=0.9 q=47.8 size=     256KiB time=00:00:02.05 bitrate=1023.2kbits/s speed=0.00749x elapsed=0:04:33.81    \nframe=  249 fps=0.9 q=49.9 size=     256KiB time=00:00:02.05 bitrate=1019.0kbits/s speed=0.0075x elapsed=0:04:34.32    \nframe=  250 fps=0.9 q=49.6 size=     256KiB time=00:00:02.06 bitrate=1014.9kbits/s speed=0.00752x elapsed=0:04:34.85    \nframe=  252 fps=0.9 q=44.3 size=     256KiB time=00:00:02.08 bitrate=1006.8kbits/s speed=0.00757x elapsed=0:04:35.36    \nframe=  252 fps=0.9 q=44.3 size=     256KiB time=00:00:02.08 bitrate=1006.8kbits/s speed=0.00755x elapsed=0:04:35.88    \nframe=  252 fps=0.9 q=44.3 size=     256KiB time=00:00:02.08 bitrate=1006.8kbits/s speed=0.00754x elapsed=0:04:36.39    \nframe=  253 fps=0.9 q=48.6 size=     256KiB time=00:00:02.09 bitrate=1002.8kbits/s speed=0.00755x elapsed=0:04:36.90    \nframe=  253 fps=0.9 q=48.6 size=     256KiB time=00:00:02.09 bitrate=1002.8kbits/s speed=0.00754x elapsed=0:04:37.42    \nframe=  254 fps=0.9 q=49.8 size=     256KiB time=00:00:02.10 bitrate= 998.8kbits/s speed=0.00756x elapsed=0:04:37.93    \nframe=  255 fps=0.9 q=49.7 size=     256KiB time=00:00:02.10 bitrate= 994.9kbits/s speed=0.00757x elapsed=0:04:38.45    \nframe=  255 fps=0.9 q=49.7 size=     256KiB time=00:00:02.10 bitrate= 994.9kbits/s speed=0.00756x elapsed=0:04:38.96    \nframe=  257 fps=0.9 q=44.2 size=     256KiB time=00:00:02.12 bitrate= 987.1kbits/s speed=0.0076x elapsed=0:04:39.48    \nframe=  257 fps=0.9 q=44.2 size=     256KiB time=00:00:02.12 bitrate= 987.1kbits/s speed=0.00759x elapsed=0:04:40.00    \nframe=  257 fps=0.9 q=44.2 size=     256KiB time=00:00:02.12 bitrate= 987.1kbits/s speed=0.00758x elapsed=0:04:40.52    \nframe=  258 fps=0.9 q=48.6 size=     256KiB time=00:00:02.13 bitrate= 983.2kbits/s speed=0.00759x elapsed=0:04:41.03    \nframe=  258 fps=0.9 q=48.6 size=     256KiB time=00:00:02.13 bitrate= 983.2kbits/s speed=0.00758x elapsed=0:04:41.54    \nframe=  259 fps=0.9 q=49.6 size=     256KiB time=00:00:02.14 bitrate= 979.4kbits/s speed=0.00759x elapsed=0:04:42.07    \nframe=  260 fps=0.9 q=49.6 size=     256KiB time=00:00:02.15 bitrate= 975.6kbits/s speed=0.00761x elapsed=0:04:42.58    \nframe=  261 fps=0.9 q=49.9 size=     256KiB time=00:00:02.15 bitrate= 971.8kbits/s speed=0.00762x elapsed=0:04:43.10    \nframe=  261 fps=0.9 q=49.9 size=     256KiB time=00:00:02.15 bitrate= 971.8kbits/s speed=0.00761x elapsed=0:04:43.62    \nframe=  262 fps=0.9 q=44.2 size=     256KiB time=00:00:02.16 bitrate= 968.1kbits/s speed=0.00763x elapsed=0:04:44.14    \nframe=  263 fps=0.9 q=48.6 size=     256KiB time=00:00:02.17 bitrate= 964.4kbits/s speed=0.00764x elapsed=0:04:44.66    \nframe=  263 fps=0.9 q=48.6 size=     256KiB time=00:00:02.17 bitrate= 964.4kbits/s speed=0.00763x elapsed=0:04:45.17    \nframe=  264 fps=0.9 q=49.8 size=     256KiB time=00:00:02.18 bitrate= 960.7kbits/s speed=0.00764x elapsed=0:04:45.69    \nframe=  264 fps=0.9 q=49.8 size=     256KiB time=00:00:02.18 bitrate= 960.7kbits/s speed=0.00763x elapsed=0:04:46.22    \nframe=  265 fps=0.9 q=49.6 size=     256KiB time=00:00:02.19 bitrate= 957.0kbits/s speed=0.00764x elapsed=0:04:46.74    \nframe=  266 fps=0.9 q=48.8 size=     256KiB time=00:00:02.20 bitrate= 953.4kbits/s speed=0.00766x elapsed=0:04:47.26    \nframe=  266 fps=0.9 q=48.8 size=     256KiB time=00:00:02.20 bitrate= 953.4kbits/s speed=0.00765x elapsed=0:04:47.76    \nframe=  267 fps=0.9 q=42.8 size=     256KiB time=00:00:02.20 bitrate= 949.8kbits/s speed=0.00766x elapsed=0:04:48.29    \nframe=  268 fps=0.9 q=47.5 size=     256KiB time=00:00:02.21 bitrate= 946.2kbits/s speed=0.00768x elapsed=0:04:48.80    \nframe=  268 fps=0.9 q=47.5 size=     256KiB time=00:00:02.21 bitrate= 946.2kbits/s speed=0.00766x elapsed=0:04:49.32    \nframe=  270 fps=0.9 q=47.7 size=     256KiB time=00:00:02.23 bitrate= 939.2kbits/s speed=0.00771x elapsed=0:04:49.82    \nframe=  270 fps=0.9 q=47.7 size=     256KiB time=00:00:02.23 bitrate= 939.2kbits/s speed=0.00769x elapsed=0:04:50.35    \nframe=  271 fps=0.9 q=47.8 size=     256KiB time=00:00:02.24 bitrate= 935.7kbits/s speed=0.00771x elapsed=0:04:50.85    \nframe=  272 fps=0.9 q=41.4 size=     256KiB time=00:00:02.25 bitrate= 932.2kbits/s speed=0.00772x elapsed=0:04:51.37    \nframe=  272 fps=0.9 q=41.4 size=     256KiB time=00:00:02.25 bitrate= 932.2kbits/s speed=0.00771x elapsed=0:04:51.89    \nframe=  273 fps=0.9 q=46.7 size=     256KiB time=00:00:02.25 bitrate= 928.8kbits/s speed=0.00772x elapsed=0:04:52.40    \nframe=  273 fps=0.9 q=46.7 size=     256KiB time=00:00:02.25 bitrate= 928.8kbits/s speed=0.00771x elapsed=0:04:52.91    \nframe=  273 fps=0.9 q=46.7 size=     256KiB time=00:00:02.25 bitrate= 928.8kbits/s speed=0.0077x elapsed=0:04:53.44    \nframe=  273 fps=0.9 q=46.7 size=     256KiB time=00:00:02.25 bitrate= 928.8kbits/s speed=0.00768x elapsed=0:04:53.96    \nframe=  274 fps=0.9 q=46.8 size=     256KiB time=00:00:02.26 bitrate= 925.4kbits/s speed=0.0077x elapsed=0:04:54.47    \nframe=  275 fps=0.9 q=46.7 size=     256KiB time=00:00:02.27 bitrate= 922.0kbits/s speed=0.00771x elapsed=0:04:54.98    \nframe=  275 fps=0.9 q=46.7 size=     256KiB time=00:00:02.27 bitrate= 922.0kbits/s speed=0.0077x elapsed=0:04:55.49    \nframe=  276 fps=0.9 q=46.6 size=     256KiB time=00:00:02.28 bitrate= 918.6kbits/s speed=0.00771x elapsed=0:04:56.02    \nframe=  277 fps=0.9 q=41.0 size=     256KiB time=00:00:02.29 bitrate= 915.3kbits/s speed=0.00773x elapsed=0:04:56.53    \nframe=  277 fps=0.9 q=41.0 size=     256KiB time=00:00:02.29 bitrate= 915.3kbits/s speed=0.00771x elapsed=0:04:57.04    \nframe=  278 fps=0.9 q=45.7 size=     256KiB time=00:00:02.30 bitrate= 912.0kbits/s speed=0.00773x elapsed=0:04:57.56    \nframe=  279 fps=0.9 q=46.4 size=     256KiB time=00:00:02.30 bitrate= 908.7kbits/s speed=0.00774x elapsed=0:04:58.07    \nframe=  280 fps=0.9 q=45.6 size=     256KiB time=00:00:02.31 bitrate= 905.4kbits/s speed=0.00776x elapsed=0:04:58.59    \nframe=  281 fps=0.9 q=39.3 size=     256KiB time=00:00:02.32 bitrate= 902.2kbits/s speed=0.00777x elapsed=0:04:59.10    \nframe=  281 fps=0.9 q=39.3 size=     256KiB time=00:00:02.32 bitrate= 902.2kbits/s speed=0.00776x elapsed=0:04:59.62    \nframe=  282 fps=0.9 q=45.3 size=     256KiB time=00:00:02.33 bitrate= 898.9kbits/s speed=0.00777x elapsed=0:05:00.14    \nframe=  283 fps=0.9 q=45.6 size=     256KiB time=00:00:02.34 bitrate= 895.7kbits/s speed=0.00779x elapsed=0:05:00.65    \nframe=  284 fps=0.9 q=44.5 size=     256KiB time=00:00:02.35 bitrate= 892.6kbits/s speed=0.0078x elapsed=0:05:01.17    \nframe=  284 fps=0.9 q=44.5 size=     256KiB time=00:00:02.35 bitrate= 892.6kbits/s speed=0.00779x elapsed=0:05:01.69    \nframe=  285 fps=0.9 q=44.5 size=     256KiB time=00:00:02.35 bitrate= 889.4kbits/s speed=0.0078x elapsed=0:05:02.20    \nframe=  286 fps=0.9 q=37.8 size=     256KiB time=00:00:02.36 bitrate= 886.3kbits/s speed=0.00782x elapsed=0:05:02.72    \nframe=  287 fps=0.9 q=44.5 size=     256KiB time=00:00:02.37 bitrate= 883.2kbits/s speed=0.00783x elapsed=0:05:03.23    \nframe=  287 fps=0.9 q=44.5 size=     256KiB time=00:00:02.37 bitrate= 883.2kbits/s speed=0.00782x elapsed=0:05:03.75    \nframe=  288 fps=0.9 q=43.7 size=     256KiB time=00:00:02.38 bitrate= 880.1kbits/s speed=0.00783x elapsed=0:05:04.27    \nframe=  289 fps=0.9 q=43.7 size=     256KiB time=00:00:02.39 bitrate= 877.0kbits/s speed=0.00785x elapsed=0:05:04.77    \nframe=  291 fps=1.0 q=36.7 size=     256KiB time=00:00:02.40 bitrate= 870.9kbits/s speed=0.00789x elapsed=0:05:05.30    \nframe=  291 fps=1.0 q=36.7 size=     256KiB time=00:00:02.40 bitrate= 870.9kbits/s speed=0.00788x elapsed=0:05:05.81    \nframe=  292 fps=1.0 q=41.4 size=     256KiB time=00:00:02.41 bitrate= 867.9kbits/s speed=0.00789x elapsed=0:05:06.32    \nframe=  293 fps=1.0 q=42.0 size=     256KiB time=00:00:02.42 bitrate= 865.0kbits/s speed=0.0079x elapsed=0:05:06.84    \nframe=  295 fps=1.0 q=41.9 size=     256KiB time=00:00:02.44 bitrate= 859.0kbits/s speed=0.00794x elapsed=0:05:07.36    \nframe=  295 fps=1.0 q=41.9 size=     256KiB time=00:00:02.44 bitrate= 859.0kbits/s speed=0.00793x elapsed=0:05:07.87    \nframe=  296 fps=1.0 q=38.4 size=     256KiB time=00:00:02.44 bitrate= 859.0kbits/s speed=0.00792x elapsed=0:05:08.40    \nframe=  296 fps=1.0 q=38.4 size=     256KiB time=00:00:02.45 bitrate= 856.1kbits/s speed=0.00793x elapsed=0:05:08.92    \nframe=  297 fps=1.0 q=38.8 size=     256KiB time=00:00:02.45 bitrate= 853.2kbits/s speed=0.00794x elapsed=0:05:09.44    \nframe=  298 fps=1.0 q=39.8 size=     256KiB time=00:00:02.46 bitrate= 850.3kbits/s speed=0.00796x elapsed=0:05:09.95    \nframe=  299 fps=1.0 q=41.0 size=     256KiB time=00:00:02.47 bitrate= 847.5kbits/s speed=0.00797x elapsed=0:05:10.46    \n[mp4 @ 000001839650b780] Starting second pass: moving the moov atom to the beginning of the file\n[out#0/mp4 @ 000001839650b640] video:289KiB audio:0KiB subtitle:0KiB other streams:0KiB global headers:2KiB muxing overhead: 2.295829%\nframe=  300 fps=1.0 q=41.0 Lsize=     296KiB time=00:00:02.48 bitrate= 976.5kbits/s speed=0.00799x elapsed=0:05:10.77    \nx265 [info]: frame I:      2, Avg QP:44.09  kb/s: 17037.60\nx265 [info]: frame P:     59, Avg QP:43.06  kb/s: 2409.65 \nx265 [info]: frame B:    239, Avg QP:47.06  kb/s: 447.99  \nx265 [info]: Weighted P-Frames: Y:0.0% UV:0.0%\n\nencoded 300 frames in 310.64s (0.97 fps), 944.38 kb/s, Avg QP:46.25\n",
  "seconds": 311.0367000102997,
  "probe_out": {}
}